<svg width="34" height="35" viewBox="0 0 34 35" fill="none" xmlns="http://www.w3.org/2000/svg">
<g clip-path="url(#clip0_15_67)">
<path d="M33.7804 22.2182C33.5531 22.064 33.2431 22.1236 33.088 22.3504C33.0462 22.4116 32.0429 23.8479 30.2003 23.8479C28.3578 23.8479 27.3545 22.4116 27.3137 22.3521C27.1302 22.0613 26.6685 22.0616 26.4852 22.3525C26.4752 22.3674 25.4604 23.8479 23.6014 23.8479C22.0431 23.8479 21.0853 22.8209 20.8021 22.4678V14.735H33.5009C33.7766 14.735 34 14.5116 34 14.2359C34 13.9603 33.7766 13.7369 33.5009 13.7369H29.4879V10.0998C29.4879 6.80024 26.8353 4.0902 23.5749 4.05866C21.9709 4.04252 20.4582 4.65758 19.3161 5.78867C18.7631 6.33633 18.3316 6.97237 18.0323 7.66425C17.1099 5.56362 15.0354 4.08197 12.6297 4.05866C12.6099 4.05846 12.5901 4.05839 12.5703 4.05839C10.9882 4.05839 9.49886 4.67152 8.37081 5.78867C7.22849 6.92004 6.59929 8.42633 6.59929 10.03V13.737H0.536803C0.261151 13.737 0.03776 13.9604 0.03776 14.236C0.03776 14.5117 0.261151 14.7351 0.536803 14.7351H6.59929V16.7057C6.59929 16.9814 6.82269 17.2048 7.09834 17.2048C7.37399 17.2048 7.59738 16.9814 7.59738 16.7057V10.03C7.59738 8.69468 8.12146 7.44026 9.07319 6.49776C10.0246 5.55559 11.2832 5.04081 12.6202 5.05668C15.3354 5.08291 17.5446 7.3453 17.5446 10.0998V13.7369H16.2832V10.03C16.2832 8.01793 14.6468 6.35286 12.6355 6.3184C12.6142 6.31807 12.5933 6.31787 12.5721 6.31787C11.6089 6.31787 10.6963 6.69459 9.99624 7.38276C9.27334 8.09337 8.85877 9.07904 8.85877 10.087V23.4806C8.19351 23.1465 7.76712 22.6749 7.59731 22.4621V18.7018C7.59731 18.4261 7.37392 18.2027 7.09827 18.2027C6.82262 18.2027 6.59923 18.4261 6.59923 18.7018V22.4671C6.31501 22.8215 5.3573 23.8479 3.79967 23.8479C1.9571 23.8479 0.953834 22.4116 0.913061 22.3521C0.759264 22.1234 0.449213 22.0627 0.22051 22.2164C-0.00819309 22.3701 -0.0689548 22.6802 0.084842 22.9089C0.137967 22.988 1.41456 24.8459 3.79961 24.8459C5.43021 24.8459 6.54265 23.9776 7.10026 23.4029C7.65788 23.9776 8.77038 24.8459 10.4009 24.8459C12.0311 24.8459 13.1423 23.9781 13.6995 23.4032C14.2572 23.9779 15.3696 24.8459 16.9998 24.8459C18.6304 24.8459 19.7428 23.9776 20.3004 23.4029C20.858 23.9776 21.9705 24.8459 23.6011 24.8459C25.2313 24.8459 26.3425 23.9781 26.8996 23.4032C27.4574 23.9779 28.5697 24.8459 30.1999 24.8459C32.5851 24.8459 33.8616 22.988 33.9147 22.9089C34.0684 22.6808 34.0079 22.3725 33.7804 22.2182ZM9.85685 18.2028H17.5446V19.6H9.85685V18.2028ZM17.5446 17.2047H9.85685V14.735H17.5446V17.2047ZM10.696 8.09457C11.219 7.58045 11.9015 7.30413 12.6184 7.31635C14.0889 7.34158 15.2852 8.55894 15.2852 10.0301V13.737H9.85692V10.0871C9.85685 9.34493 10.1627 8.61871 10.696 8.09457ZM14.1134 22.3521C13.9301 22.0629 13.4707 22.0627 13.286 22.3509C13.2443 22.412 12.2433 23.8479 10.4011 23.8479C10.2105 23.8479 10.0294 23.8318 9.85685 23.8042V20.598H17.5446V23.8041C17.372 23.8317 17.1908 23.8479 17 23.8479C15.1575 23.8479 14.1541 22.4116 14.1134 22.3521ZM18.5426 23.4804V10.03C18.5426 8.69468 19.0667 7.44026 20.0184 6.49776C20.9698 5.55559 22.2285 5.04081 23.5653 5.05668C26.2806 5.08291 28.4898 7.3453 28.4898 10.0998V13.7369H27.2284V12.6276C27.2284 12.3519 27.005 12.1285 26.7294 12.1285C26.4537 12.1285 26.2303 12.3519 26.2303 12.6276V13.7369H20.802V10.087C20.802 9.34486 21.1079 8.61864 21.6411 8.09443C22.1641 7.58032 22.8454 7.304 23.5635 7.31622C25.034 7.34145 26.2303 8.55881 26.2303 10.03V10.6315C26.2303 10.9071 26.4537 11.1305 26.7294 11.1305C27.005 11.1305 27.2284 10.9071 27.2284 10.6315V10.03C27.2284 8.01787 25.592 6.3528 23.5807 6.31833C23.5595 6.318 23.5385 6.3178 23.5173 6.3178C22.5541 6.3178 21.6416 6.69452 20.9415 7.38269C20.2186 8.0933 19.804 9.07897 19.804 10.087V22.4614C19.6337 22.6751 19.2073 23.1465 18.5426 23.4804Z" fill="#616161"/>
<path d="M13.7017 29.9437C11.8591 29.9437 10.8559 28.5074 10.8151 28.4479C10.6319 28.1588 10.1728 28.1585 9.98794 28.4463C9.94617 28.5074 8.94284 29.9437 7.10033 29.9437C5.25783 29.9437 4.25449 28.5074 4.21372 28.4479C4.05992 28.2192 3.74987 28.1585 3.52117 28.3123C3.29247 28.466 3.2317 28.7761 3.3855 29.0048C3.43863 29.0838 4.71515 30.9418 7.10027 30.9418C8.73087 30.9418 9.84331 30.0734 10.4009 29.4988C10.9585 30.0734 12.071 30.9418 13.7016 30.9418C13.9773 30.9418 14.2007 30.7184 14.2007 30.4427C14.2007 30.1671 13.9774 29.9437 13.7017 29.9437Z" fill="#616161"/>
<path d="M30.4792 28.314C30.2516 28.16 29.9418 28.2199 29.7868 28.4469C29.7451 28.508 28.7441 29.9439 26.9019 29.9439C25.0593 29.9439 24.0561 28.5076 24.0153 28.4481C23.8319 28.1575 23.3705 28.1575 23.1871 28.4481C23.177 28.463 22.1598 29.9439 20.3004 29.9439C18.4579 29.9439 17.4546 28.5076 17.4138 28.4481C17.2305 28.1589 16.7711 28.1587 16.5864 28.4469C16.5824 28.4526 16.1797 29.0352 15.4369 29.4688C15.1989 29.6078 15.1185 29.9134 15.2575 30.1514C15.3965 30.3893 15.7019 30.4696 15.9401 30.3308C16.3985 30.0632 16.753 29.7522 16.9994 29.4985C17.5569 30.0732 18.6694 30.942 20.3004 30.942C21.9311 30.942 23.0435 30.0736 23.6011 29.4989C24.1587 30.0736 25.2712 30.942 26.9018 30.942C29.2872 30.942 30.5613 29.0836 30.6144 29.0046C30.7677 28.7762 30.7068 28.468 30.4792 28.314Z" fill="#616161"/>
</g>
<defs>
<clipPath id="clip0_15_67">
<rect width="34" height="34" fill="white" transform="translate(0 0.5)"/>
</clipPath>
</defs>
</svg>
