<svg width="34" height="35" viewBox="0 0 34 35" fill="none" xmlns="http://www.w3.org/2000/svg">
<g clip-path="url(#clip0_15_381)">
<path d="M33.9869 16.7585C33.9229 16.1561 33.6282 15.6156 33.1381 15.2206L30.0334 12.9228V7.29986H25.5001V9.56818L17.0337 3.30322L0.885089 14.667C0.405131 15.0359 0.0974356 15.5702 0.0192369 16.1703C-0.0589618 16.771 0.101402 17.3654 0.470296 17.8453C1.23302 18.8359 2.65759 19.0217 3.62601 18.2771L3.96714 18.0408V19.3991C3.29962 19.7187 2.83382 20.3953 2.83382 21.1835C2.83382 21.9717 3.29962 22.6483 3.96714 22.9679V25.0657C3.29962 25.3853 2.83382 26.0619 2.83382 26.8501C2.83382 27.6383 3.29962 28.3149 3.96714 28.6345V30.7323C3.29962 31.0519 2.83382 31.7285 2.83382 32.5167C2.83382 33.6103 3.72348 34.5 4.81712 34.5H13.0337H14.167H19.8335H20.9669H29.1834C30.277 34.5 31.1667 33.6103 31.1667 32.5167C31.1667 31.5205 30.4255 30.7011 29.4667 30.5623V28.8045C30.4255 28.6657 31.1667 27.8463 31.1667 26.8501C31.1667 25.8539 30.4255 25.0345 29.4667 24.8957V23.1379C30.4255 22.9991 31.1667 22.1797 31.1667 21.1835C31.1667 20.1873 30.4255 19.368 29.4667 19.2291V18.1485L30.3207 18.7713C30.7366 19.1033 31.2347 19.2643 31.7305 19.2643C32.3924 19.2643 33.0491 18.9764 33.4968 18.4228C33.877 17.9519 34.0515 17.3609 33.9869 16.7585ZM26.6334 8.43374H28.9001V12.0841L26.6334 10.4068V8.43374ZM13.0337 28.8334V30.5334H5.10045V28.8334H13.0337ZM5.10045 24.8668V23.1668H13.0337V24.8668H5.10045ZM4.81712 26.0001H13.0337V27.7001H4.81712C4.3485 27.7001 3.96714 27.3187 3.96714 26.8501C3.96714 26.3815 4.3485 26.0001 4.81712 26.0001ZM13.0337 33.3667H4.81712C4.3485 33.3667 3.96714 32.9853 3.96714 32.5167C3.96714 32.048 4.3485 31.6667 4.81712 31.6667H13.0337V33.3667ZM19.8335 33.3667H14.167V31.1V30.5334V28.8334V28.2667V25.4335V24.8668V23.1668H19.8335V24.8668V25.4335V28.2667V28.8334V30.5334V31.1V33.3667ZM20.9669 24.8668V23.1668H28.3334V24.8668H20.9669ZM20.9669 30.5334V28.8334H28.3334V30.5334H20.9669ZM30.0334 32.5167C30.0334 32.9853 29.652 33.3667 29.1834 33.3667H20.9669V31.6667H29.1834C29.652 31.6667 30.0334 32.048 30.0334 32.5167ZM30.0334 26.8501C30.0334 27.3187 29.652 27.7001 29.1834 27.7001H20.9669V26.0001H29.1834C29.652 26.0001 30.0334 26.3815 30.0334 26.8501ZM30.0334 21.1835C30.0334 21.6522 29.652 22.0335 29.1834 22.0335H20.9669H13.0337H4.81712C4.3485 22.0335 3.96714 21.6522 3.96714 21.1835C3.96714 20.7149 4.3485 20.3335 4.81712 20.3335H13.6003H20.4002H29.1834C29.652 20.3335 30.0334 20.7149 30.0334 21.1835ZM19.2669 19.2002H17.5669V17.5003H19.2669V19.2002ZM19.2669 16.3669H17.5669V14.667H19.2669V16.3669ZM16.4336 16.3669H14.7336V14.667H16.4336V16.3669ZM14.7336 17.5003H16.4336V19.2002H14.7336V17.5003ZM22.6668 17.5003H28.3334V19.2002H20.4002V13.5337H13.6003V19.2002H5.10045V17.5003H11.3337C11.647 17.5003 11.9003 17.247 11.9003 16.9336C11.9003 16.6202 11.647 16.3669 11.3337 16.3669H6.3811L8.83302 14.667H11.9003V13.5337H10.4678L12.9198 11.8337H20.8127L22.1704 12.8242L23.1428 13.5337H22.1007V14.667H24.696L27.0261 16.3669H22.6674C22.354 16.3669 22.1007 16.6202 22.1007 16.9336C22.1007 17.247 22.3535 17.5003 22.6668 17.5003ZM14.554 10.7004L16.9668 9.02759L19.2595 10.7004H14.554ZM32.6145 17.711C32.2224 18.1961 31.5067 18.2737 31.0205 17.8805L29.4338 16.7228L28.9488 16.3669H28.9465L26.617 14.667H26.6181L21.1816 10.7004L16.9827 7.63645L12.5645 10.7004L6.84349 14.667H6.84462L4.35756 16.3913L4.35417 16.3919L4.15357 16.533L2.95792 17.362C2.46153 17.7428 1.74867 17.6499 1.36845 17.1552C1.18372 16.9149 1.10382 16.6174 1.14292 16.3171C1.18202 16.0167 1.33615 15.7498 1.55601 15.5793L17.0173 4.70117L25.5001 10.978L26.7451 11.8994L32.4456 16.1176C32.6808 16.3074 32.8287 16.5783 32.8599 16.8792C32.8922 17.1795 32.8049 17.4753 32.6145 17.711Z" fill="#616161"/>
<path d="M15.3003 28.8333C15.6133 28.8333 15.867 28.5796 15.867 28.2666C15.867 27.9537 15.6133 27.7 15.3003 27.7C14.9873 27.7 14.7336 27.9537 14.7336 28.2666C14.7336 28.5796 14.9873 28.8333 15.3003 28.8333Z" fill="#616161"/>
<path d="M26.6334 6.73365C26.7808 6.73365 26.9281 6.67132 27.0358 6.56932C27.1378 6.46166 27.2001 6.31433 27.2001 6.167C27.2001 6.01967 27.1378 5.87177 27.0358 5.76467C26.8261 5.55501 26.4408 5.55501 26.2311 5.76467C26.1285 5.87177 26.0668 6.01967 26.0668 6.167C26.0668 6.31433 26.1285 6.46166 26.2311 6.56932C26.3382 6.67075 26.4861 6.73365 26.6334 6.73365Z" fill="#616161"/>
<path d="M28.9 6.73368C29.2134 6.73368 29.4667 6.48039 29.4667 6.16703V3.9004C29.4667 3.58704 29.2134 3.33374 28.9 3.33374C28.5867 3.33374 28.3334 3.58704 28.3334 3.9004V6.16703C28.3334 6.47982 28.5867 6.73368 28.9 6.73368Z" fill="#616161"/>
<path d="M28.9 2.76712C29.2134 2.76712 29.4667 2.51382 29.4667 2.20046V1.06715C29.4667 0.753784 29.2134 0.500488 28.9 0.500488C28.5867 0.500488 28.3334 0.753784 28.3334 1.06715V2.20046C28.3334 2.51325 28.5867 2.76712 28.9 2.76712Z" fill="#616161"/>
<path d="M26.6334 5.03372C26.9468 5.03372 27.2001 4.78042 27.2001 4.46706V3.33375C27.2001 3.02039 26.9468 2.76709 26.6334 2.76709C26.3201 2.76709 26.0668 3.02039 26.0668 3.33375V4.46706C26.0668 4.77986 26.3201 5.03372 26.6334 5.03372Z" fill="#616161"/>
<path d="M26.6334 2.20046C26.9468 2.20046 27.2001 1.94716 27.2001 1.6338V1.06715C27.2001 0.753784 26.9468 0.500488 26.6334 0.500488C26.3201 0.500488 26.0668 0.753784 26.0668 1.06715V1.6338C26.0668 1.9466 26.3201 2.20046 26.6334 2.20046Z" fill="#616161"/>
</g>
<defs>
<clipPath id="clip0_15_381">
<rect width="34" height="34" fill="white" transform="translate(0 0.5)"/>
</clipPath>
</defs>
</svg>
