<svg width="35" height="35" viewBox="0 0 35 35" fill="none" xmlns="http://www.w3.org/2000/svg">
<path d="M32.7735 26.1063C32.5344 26.0531 32.2688 26.2125 32.2157 26.4781L32.1094 27.0625C30.5688 25.3891 26.1594 20.3156 23.7157 14.3922C23.636 14.2328 23.5032 14.1266 23.2907 14.1H14.5782C14.4985 13.9938 14.4188 13.8875 14.3391 13.7812V12.5063C14.7641 12.9313 15.2688 13.3031 15.8 13.5688C16.0391 13.675 16.3047 13.5953 16.4375 13.3563C16.5438 13.1172 16.4641 12.825 16.225 12.7188C15.4547 12.3203 14.8172 11.7359 14.3391 11.0453V9.98281C14.6579 10.275 15.0032 10.5141 15.375 10.7C15.6141 10.8063 15.8797 10.7 15.986 10.4875C16.0922 10.2484 16.0125 9.98281 15.7735 9.87656C15.1891 9.58437 14.6844 9.13281 14.3391 8.575V7.43281C14.525 7.59219 14.7375 7.69844 14.95 7.80469C15.1891 7.91094 15.4547 7.83125 15.5875 7.59219C15.6938 7.35313 15.6141 7.0875 15.375 6.95469C14.6844 6.58281 14.4188 6.10469 14.286 5.94531C14.1 5.67969 13.7016 5.67969 13.5157 5.94531C13.436 6.025 13.1438 6.58281 12.4266 6.95469C12.1875 7.06094 12.1079 7.35313 12.2141 7.59219C12.3204 7.80469 12.586 7.91094 12.825 7.80469C13.0375 7.69844 13.25 7.56563 13.436 7.43281V8.575C13.0641 9.13281 12.586 9.55781 12.0016 9.87656C11.7625 9.98281 11.6563 10.275 11.7891 10.4875C11.9219 10.7 12.1875 10.8328 12.4 10.7C12.7719 10.5141 13.1172 10.275 13.436 9.98281V11.0453C12.9579 11.7625 12.3204 12.3469 11.55 12.7188C11.311 12.825 11.2313 13.1172 11.3375 13.3297C11.4438 13.5422 11.736 13.6484 11.9485 13.5422C12.4797 13.2766 12.9844 12.9047 13.4094 12.4797V13.7547C13.3297 13.8609 13.25 13.9672 13.1704 14.0734H11.7094C11.4969 14.0734 11.3375 14.2063 11.2844 14.3656C10.8063 15.4812 10.3016 16.5703 9.71723 17.6328C9.18598 17.2078 8.73442 16.7031 8.36255 16.1453V14.8703C8.78755 15.2953 9.29223 15.6672 9.82348 15.9328C10.0625 16.0391 10.3282 15.9594 10.461 15.7203C10.5672 15.4812 10.4875 15.1891 10.2485 15.0828C9.47817 14.6844 8.84067 14.1 8.36255 13.4094V12.3469C8.6813 12.6391 9.02661 12.8781 9.39848 13.0641C9.63755 13.1703 9.90317 13.0906 10.036 12.8516C10.1422 12.6125 10.0625 12.3203 9.82348 12.2141C9.23911 11.9219 8.73442 11.4703 8.38911 10.9391V9.79688C8.57505 9.95625 8.78755 10.0625 9.00005 10.1688C9.23911 10.275 9.50473 10.1687 9.61098 9.95625C9.71723 9.71719 9.63755 9.45156 9.39848 9.34531C8.70786 8.97344 8.44223 8.49531 8.30942 8.33594C8.12348 8.07031 7.72505 8.07031 7.53911 8.33594C7.45942 8.41563 7.16723 8.97344 6.45005 9.34531C6.21098 9.47812 6.1313 9.74375 6.26411 9.98281C6.37036 10.1953 6.63598 10.275 6.87505 10.1953C7.08755 10.0891 7.30005 9.95625 7.48598 9.82344V10.9656C7.11411 11.5234 6.63598 11.9484 6.05161 12.2406C5.81255 12.3469 5.73286 12.6391 5.83911 12.8516C5.94536 13.0641 6.23755 13.1703 6.45005 13.0641C6.82192 12.8781 7.16723 12.6391 7.48598 12.3469V13.4094C7.00786 14.1266 6.37036 14.7109 5.60005 15.0828C5.36098 15.1891 5.2813 15.4812 5.38755 15.6938C5.4938 15.9062 5.78598 16.0125 5.99848 15.9062C6.52973 15.6406 7.03442 15.2688 7.45942 14.8438V16.1719C6.87505 17.0484 6.07817 17.7656 5.14848 18.2438C4.90942 18.35 4.80317 18.6156 4.93598 18.8547C5.04223 19.0938 5.30786 19.2 5.54692 19.0672H5.57348C6.29067 18.7219 6.92817 18.2172 7.48598 17.6328V21.325C6.05161 23.3703 4.53755 25.2828 2.89067 27.0625L2.75786 26.4516C2.70473 26.2125 2.46567 26.0266 2.20005 26.0797C1.93442 26.1328 1.77505 26.3719 1.82817 26.6375L2.41255 29.4266C2.46567 29.6656 2.70473 29.8516 2.97036 29.7984C3.20942 29.7453 3.39536 29.5062 3.34223 29.2406L3.12973 28.1781C4.67036 26.5312 6.10473 24.8047 7.4063 22.9984V23.7687L5.17505 29.1609C5.04223 29.4797 5.2813 29.7984 5.60005 29.7984H29.3735C29.6922 29.7984 29.9313 29.4531 29.7985 29.1609L26.7969 21.8828C28.311 24.1141 30.011 26.2125 31.8438 28.1516L31.6313 29.2141C31.5782 29.4531 31.7375 29.7188 32.0032 29.7719C32.2422 29.825 32.5079 29.6656 32.561 29.4L33.1454 26.6109C33.1985 26.3984 33.0391 26.1594 32.7735 26.1063ZM14.8438 28.8688L14.6844 28.1516C16.5172 26.1859 18.2172 24.0875 19.7313 21.8828L16.836 28.8688H14.8438ZM23.7422 23.875L25.5485 28.8953H23.7422V23.875ZM24.486 23.2109L27.6204 26.5578L26.3454 28.3375L24.486 23.2109ZM23.7422 21.0328V16.9156L26.7969 24.3266L23.7422 21.0328ZM8.36255 17.6859C8.62817 17.9781 8.94692 18.2437 9.26567 18.4828C8.97348 18.9875 8.6813 19.4922 8.36255 19.9703V17.6859ZM12.0282 15.0562H22.5735C20.1032 20.6609 15.9594 25.4422 14.4719 27.0625L14.3391 26.4516C14.286 26.2125 14.0469 26.0266 13.7813 26.0797C13.5422 26.1328 13.3563 26.3719 13.4094 26.6375L13.8875 28.8688H6.31723L12.0282 15.0562ZM22.8125 16.9156V21.2188V28.8688H17.8719L22.8125 16.9156ZM27.1157 28.8688L28.0985 27.4875L28.6829 28.8688H27.1157Z" fill="#616161"/>
<path d="M24.3 6.05155C24.5125 5.89217 24.539 5.59999 24.4062 5.41405C24.3265 5.3078 24.1937 5.22811 24.0609 5.22811C22.1484 5.0953 20.5015 6.55624 20.3687 8.46874C20.2359 10.3812 21.6969 12.0281 23.6094 12.1609C24.8578 12.2406 26.0797 11.6297 26.7437 10.5672C26.8765 10.3547 26.8234 10.0625 26.6109 9.92967C26.5047 9.84999 26.3453 9.84999 26.239 9.87655C25.0969 10.2219 23.875 9.61092 23.5297 8.46874C23.2375 7.53905 23.5562 6.5828 24.3 6.05155ZM25.15 10.8594C23.9547 11.5765 22.3875 11.2047 21.6703 10.0094C20.8734 8.68124 21.4312 6.92811 22.8656 6.34374C22.0687 7.8578 22.6265 9.71717 24.1406 10.5406C24.4328 10.6734 24.7781 10.8062 25.15 10.8594Z" fill="#616161"/>
</svg>
