<svg width="35" height="35" viewBox="0 0 35 35" fill="none" xmlns="http://www.w3.org/2000/svg">
<g clip-path="url(#clip0_15_403)">
<path d="M28.125 30.25H26.5312L25.5006 12.1875H26C26.3461 12.1863 26.6824 12.0725 26.9581 11.8632C27.2338 11.6539 27.4339 11.3606 27.5281 11.0276C27.6223 10.6945 27.6055 10.3399 27.4803 10.0172C27.3551 9.69453 27.1283 9.42139 26.8341 9.23906L28.5659 6.63594C28.624 6.5495 28.6554 6.44789 28.6562 6.34375V1.03125C28.6562 0.890354 28.6003 0.755228 28.5007 0.6556C28.401 0.555971 28.2659 0.5 28.125 0.5H25.4688C25.3279 0.5 25.1927 0.555971 25.0931 0.6556C24.9935 0.755228 24.9375 0.890354 24.9375 1.03125V2.625H22.8125V1.03125C22.8125 0.890354 22.7565 0.755228 22.6569 0.6556C22.5573 0.555971 22.4221 0.5 22.2812 0.5H19.0938C18.9529 0.5 18.8177 0.555971 18.7181 0.6556C18.6185 0.755228 18.5625 0.890354 18.5625 1.03125V2.625H16.4375V1.03125C16.4375 0.890354 16.3815 0.755228 16.2819 0.6556C16.1823 0.555971 16.0471 0.5 15.9062 0.5H12.7188C12.5779 0.5 12.4427 0.555971 12.3431 0.6556C12.2435 0.755228 12.1875 0.890354 12.1875 1.03125V2.625H10.0625V1.03125C10.0625 0.890354 10.0065 0.755228 9.9069 0.6556C9.80727 0.555971 9.67215 0.5 9.53125 0.5H6.875C6.7341 0.5 6.59898 0.555971 6.49935 0.6556C6.39972 0.755228 6.34375 0.890354 6.34375 1.03125V6.34375C6.34299 6.44735 6.37253 6.54891 6.42875 6.63594L8.16062 9.23906C7.86604 9.42163 7.639 9.69524 7.5139 10.0184C7.38879 10.3416 7.37245 10.6968 7.46734 11.0301C7.56223 11.3635 7.76319 11.6568 8.03976 11.8656C8.31633 12.0745 8.65343 12.1875 9 12.1875H9.49938L8.49531 30.25H6.875C6.17052 30.25 5.49489 30.5299 4.99675 31.028C4.4986 31.5261 4.21875 32.2018 4.21875 32.9062V33.9688C4.21875 34.1096 4.27472 34.2448 4.37435 34.3444C4.47398 34.444 4.6091 34.5 4.75 34.5H30.25C30.3909 34.5 30.526 34.444 30.6257 34.3444C30.7253 34.2448 30.7812 34.1096 30.7812 33.9688V32.9062C30.7812 32.2018 30.5014 31.5261 30.0033 31.028C29.5051 30.5299 28.8295 30.25 28.125 30.25ZM9 1.5625V3.15625C9 3.29715 9.05597 3.43227 9.1556 3.5319C9.25523 3.63153 9.39035 3.6875 9.53125 3.6875H12.7188C12.8596 3.6875 12.9948 3.63153 13.0944 3.5319C13.194 3.43227 13.25 3.29715 13.25 3.15625V1.5625H15.375V3.15625C15.375 3.29715 15.431 3.43227 15.5306 3.5319C15.6302 3.63153 15.7654 3.6875 15.9062 3.6875H19.0938C19.2346 3.6875 19.3698 3.63153 19.4694 3.5319C19.569 3.43227 19.625 3.29715 19.625 3.15625V1.5625H21.75V3.15625C21.75 3.29715 21.806 3.43227 21.9056 3.5319C22.0052 3.63153 22.1404 3.6875 22.2812 3.6875H25.4688C25.6096 3.6875 25.7448 3.63153 25.8444 3.5319C25.944 3.43227 26 3.29715 26 3.15625V1.5625H27.5938V5.8125H7.40625V1.5625H9ZM27.1316 6.875L25.7131 9H9.28688L7.86844 6.875H27.1316ZM8.46875 10.5938C8.46875 10.4529 8.52472 10.3177 8.62435 10.2181C8.72398 10.1185 8.8591 10.0625 9 10.0625H26C26.1409 10.0625 26.276 10.1185 26.3757 10.2181C26.4753 10.3177 26.5312 10.4529 26.5312 10.5938C26.5312 10.7346 26.4753 10.8698 26.3757 10.9694C26.276 11.069 26.1409 11.125 26 11.125H9C8.8591 11.125 8.72398 11.069 8.62435 10.9694C8.52472 10.8698 8.46875 10.7346 8.46875 10.5938ZM10.3281 16.4375H14.3125C14.4534 16.4375 14.5885 16.3815 14.6882 16.2819C14.7878 16.1823 14.8438 16.0471 14.8438 15.9062C14.8438 15.7654 14.7878 15.6302 14.6882 15.5306C14.5885 15.431 14.4534 15.375 14.3125 15.375H10.3866L10.5938 12.1875H24.4594L24.9322 20.6875H20.6875C20.5466 20.6875 20.4115 20.7435 20.3118 20.8431C20.2122 20.9427 20.1562 21.0779 20.1562 21.2188C20.1562 21.3596 20.2122 21.4948 20.3118 21.5944C20.4115 21.694 20.5466 21.75 20.6875 21.75H24.9375L25.2669 27.5938H22.2812C22.1404 27.5938 22.0052 27.6497 21.9056 27.7493C21.806 27.849 21.75 27.9841 21.75 28.125C21.75 28.2659 21.806 28.401 21.9056 28.5007C22.0052 28.6003 22.1404 28.6562 22.2812 28.6562H25.3519L25.4369 30.25H20.6875V28.125C20.6875 27.2796 20.3517 26.4689 19.7539 25.8711C19.1561 25.2733 18.3454 24.9375 17.5 24.9375C16.6546 24.9375 15.8439 25.2733 15.2461 25.8711C14.6483 26.4689 14.3125 27.2796 14.3125 28.125V30.25H9.56312L10.3281 16.4375ZM19.625 30.25H15.375V28.125C15.375 27.5614 15.5989 27.0209 15.9974 26.6224C16.3959 26.2239 16.9364 26 17.5 26C18.0636 26 18.6041 26.2239 19.0026 26.6224C19.4011 27.0209 19.625 27.5614 19.625 28.125V30.25ZM29.7188 33.4375H5.28125V32.9062C5.28125 32.4836 5.44916 32.0782 5.74805 31.7793C6.04693 31.4804 6.45231 31.3125 6.875 31.3125H28.125C28.5477 31.3125 28.9531 31.4804 29.252 31.7793C29.5508 32.0782 29.7188 32.4836 29.7188 32.9062V33.4375Z" fill="#616161"/>
<path d="M11.6562 22.8125H14.8438C14.9846 22.8125 15.1198 22.7565 15.2194 22.6569C15.319 22.5573 15.375 22.4221 15.375 22.2812V20.6875C15.375 20.1239 15.1511 19.5834 14.7526 19.1849C14.3541 18.7864 13.8136 18.5625 13.25 18.5625C12.6864 18.5625 12.1459 18.7864 11.7474 19.1849C11.3489 19.5834 11.125 20.1239 11.125 20.6875V22.2812C11.125 22.4221 11.181 22.5573 11.2806 22.6569C11.3802 22.7565 11.5154 22.8125 11.6562 22.8125ZM12.1875 20.6875C12.1875 20.4057 12.2994 20.1355 12.4987 19.9362C12.698 19.7369 12.9682 19.625 13.25 19.625C13.5318 19.625 13.802 19.7369 14.0013 19.9362C14.2006 20.1355 14.3125 20.4057 14.3125 20.6875V21.75H12.1875V20.6875Z" fill="#616161"/>
<path d="M20.1562 17.5H23.3438C23.4846 17.5 23.6198 17.444 23.7194 17.3444C23.819 17.2448 23.875 17.1096 23.875 16.9688V15.375C23.875 14.8114 23.6511 14.2709 23.2526 13.8724C22.8541 13.4739 22.3136 13.25 21.75 13.25C21.1864 13.25 20.6459 13.4739 20.2474 13.8724C19.8489 14.2709 19.625 14.8114 19.625 15.375V16.9688C19.625 17.1096 19.681 17.2448 19.7806 17.3444C19.8802 17.444 20.0154 17.5 20.1562 17.5ZM20.6875 15.375C20.6875 15.0932 20.7994 14.823 20.9987 14.6237C21.198 14.4244 21.4682 14.3125 21.75 14.3125C22.0318 14.3125 22.302 14.4244 22.5013 14.6237C22.7006 14.823 22.8125 15.0932 22.8125 15.375V16.4375H20.6875V15.375Z" fill="#616161"/>
<path d="M19.0938 20.6875H18.0312C17.8904 20.6875 17.7552 20.7435 17.6556 20.8431C17.556 20.9427 17.5 21.0779 17.5 21.2188C17.5 21.3596 17.556 21.4948 17.6556 21.5944C17.7552 21.694 17.8904 21.75 18.0312 21.75H19.0938C19.2346 21.75 19.3698 21.694 19.4694 21.5944C19.569 21.4948 19.625 21.3596 19.625 21.2188C19.625 21.0779 19.569 20.9427 19.4694 20.8431C19.3698 20.7435 19.2346 20.6875 19.0938 20.6875Z" fill="#616161"/>
<path d="M14.3125 24.4062H18.5625C18.7034 24.4062 18.8385 24.3503 18.9382 24.2507C19.0378 24.151 19.0938 24.0159 19.0938 23.875C19.0938 23.7341 19.0378 23.599 18.9382 23.4993C18.8385 23.3997 18.7034 23.3438 18.5625 23.3438H14.3125C14.1716 23.3438 14.0365 23.3997 13.9368 23.4993C13.8372 23.599 13.7812 23.7341 13.7812 23.875C13.7812 24.0159 13.8372 24.151 13.9368 24.2507C14.0365 24.3503 14.1716 24.4062 14.3125 24.4062Z" fill="#616161"/>
<path d="M19.625 23.875C19.625 24.0159 19.681 24.151 19.7806 24.2507C19.8802 24.3503 20.0154 24.4062 20.1562 24.4062H21.2188C21.3596 24.4062 21.4948 24.3503 21.5944 24.2507C21.694 24.151 21.75 24.0159 21.75 23.875C21.75 23.7341 21.694 23.599 21.5944 23.4993C21.4948 23.3997 21.3596 23.3438 21.2188 23.3438H20.1562C20.0154 23.3438 19.8802 23.3997 19.7806 23.4993C19.681 23.599 19.625 23.7341 19.625 23.875Z" fill="#616161"/>
<path d="M20.6875 18.5625H16.4375C16.2966 18.5625 16.1615 18.6185 16.0618 18.7181C15.9622 18.8177 15.9062 18.9529 15.9062 19.0938C15.9062 19.2346 15.9622 19.3698 16.0618 19.4694C16.1615 19.569 16.2966 19.625 16.4375 19.625H20.6875C20.8284 19.625 20.9635 19.569 21.0632 19.4694C21.1628 19.3698 21.2188 19.2346 21.2188 19.0938C21.2188 18.9529 21.1628 18.8177 21.0632 18.7181C20.9635 18.6185 20.8284 18.5625 20.6875 18.5625Z" fill="#616161"/>
<path d="M23.3438 18.5625H22.2812C22.1404 18.5625 22.0052 18.6185 21.9056 18.7181C21.806 18.8177 21.75 18.9529 21.75 19.0938C21.75 19.2346 21.806 19.3698 21.9056 19.4694C22.0052 19.569 22.1404 19.625 22.2812 19.625H23.3438C23.4846 19.625 23.6198 19.569 23.7194 19.4694C23.819 19.3698 23.875 19.2346 23.875 19.0938C23.875 18.9529 23.819 18.8177 23.7194 18.7181C23.6198 18.6185 23.4846 18.5625 23.3438 18.5625Z" fill="#616161"/>
<path d="M15.9062 16.4375H16.9688C17.1096 16.4375 17.2448 16.3815 17.3444 16.2819C17.444 16.1823 17.5 16.0471 17.5 15.9062C17.5 15.7654 17.444 15.6302 17.3444 15.5306C17.2448 15.431 17.1096 15.375 16.9688 15.375H15.9062C15.7654 15.375 15.6302 15.431 15.5306 15.5306C15.431 15.6302 15.375 15.7654 15.375 15.9062C15.375 16.0471 15.431 16.1823 15.5306 16.2819C15.6302 16.3815 15.7654 16.4375 15.9062 16.4375Z" fill="#616161"/>
<path d="M12.7188 27.5938H11.6562C11.5154 27.5938 11.3802 27.6497 11.2806 27.7493C11.181 27.849 11.125 27.9841 11.125 28.125C11.125 28.2659 11.181 28.401 11.2806 28.5007C11.3802 28.6003 11.5154 28.6562 11.6562 28.6562H12.7188C12.8596 28.6562 12.9948 28.6003 13.0944 28.5007C13.194 28.401 13.25 28.2659 13.25 28.125C13.25 27.9841 13.194 27.849 13.0944 27.7493C12.9948 27.6497 12.8596 27.5938 12.7188 27.5938Z" fill="#616161"/>
<path d="M14.3125 13.25H13.25C13.1091 13.25 12.974 13.306 12.8743 13.4056C12.7747 13.5052 12.7188 13.6404 12.7188 13.7812C12.7188 13.9221 12.7747 14.0573 12.8743 14.1569C12.974 14.2565 13.1091 14.3125 13.25 14.3125H14.3125C14.4534 14.3125 14.5885 14.2565 14.6882 14.1569C14.7878 14.0573 14.8438 13.9221 14.8438 13.7812C14.8438 13.6404 14.7878 13.5052 14.6882 13.4056C14.5885 13.306 14.4534 13.25 14.3125 13.25Z" fill="#616161"/>
</g>
<defs>
<clipPath id="clip0_15_403">
<rect width="34" height="34" fill="white" transform="translate(0.5 0.5)"/>
</clipPath>
</defs>
</svg>
