<svg width="34" height="35" viewBox="0 0 34 35" fill="none" xmlns="http://www.w3.org/2000/svg">
<g clip-path="url(#clip0_8_464)">
<path d="M7.32284 31.7991L6.89691 30.8259C11.138 28.9694 15.5516 27.5351 20.0739 26.5437C20.2881 26.4968 20.5039 26.4556 20.7187 26.4107V21.75H20.1875C20.0824 21.75 19.9797 21.7188 19.8924 21.6605C19.805 21.6021 19.7369 21.5191 19.6967 21.4221C19.6565 21.325 19.646 21.2182 19.6665 21.1151C19.687 21.0121 19.7376 20.9174 19.8119 20.8431L24.0619 16.5931C24.1112 16.5438 24.1698 16.5047 24.2342 16.478C24.2987 16.4512 24.3678 16.4375 24.4375 16.4375C24.5073 16.4375 24.5764 16.4512 24.6408 16.478C24.7053 16.5047 24.7638 16.5438 24.8131 16.5931L29.0631 20.8431C29.1374 20.9174 29.188 21.0121 29.2085 21.1151C29.229 21.2182 29.2185 21.325 29.1783 21.4221C29.1381 21.5191 29.07 21.6021 28.9826 21.6605C28.8953 21.7188 28.7926 21.75 28.6875 21.75H28.1562V25.2659C29.9189 25.0907 31.6856 24.9813 33.4563 24.9375L33.4812 26C29.0474 26.105 24.6339 26.6345 20.3011 27.5813C15.8471 28.5581 11.5001 29.9708 7.32284 31.7991ZM23.9062 25.8207C24.2601 25.7636 24.6139 25.706 24.9687 25.6543V23.875H23.9062V25.8207ZM21.7812 26.1929C22.1345 26.1248 22.4892 26.0631 22.8437 26.0003V23.3437C22.8437 23.274 22.8575 23.2049 22.8842 23.1404C22.9108 23.076 22.95 23.0174 22.9993 22.968C23.0486 22.9187 23.1072 22.8796 23.1717 22.8529C23.2361 22.8262 23.3052 22.8125 23.375 22.8125H25.5C25.5698 22.8125 25.6389 22.8262 25.7033 22.8529C25.7678 22.8796 25.8264 22.9187 25.8757 22.968C25.925 23.0174 25.9642 23.076 25.9908 23.1404C26.0175 23.2049 26.0313 23.274 26.0312 23.3437V25.5119C26.3851 25.4659 26.7391 25.4212 27.0937 25.3805V21.75H21.7812V26.1929ZM27.405 20.6875L24.4375 17.72L21.47 20.6875H27.405Z" fill="#616161"/>
<path d="M11.2582 32.8736L10.8919 31.8764C13.8885 30.7775 16.9562 29.8833 20.0739 29.1999C24.4732 28.2384 28.9544 27.7006 33.4563 27.5938L33.4812 28.6563C29.0474 28.7613 24.6339 29.2908 20.3011 30.2375C17.2307 30.9108 14.2094 31.7915 11.2582 32.8736Z" fill="#616161"/>
<path d="M16.0835 34.0169L15.7915 32.9949C17.2018 32.5923 18.6428 32.2291 20.0739 31.9158C24.4732 30.9543 28.9544 30.4164 33.4563 30.3096L33.4812 31.3721C29.0474 31.4771 24.6339 32.0066 20.3011 32.9534C18.8915 33.2621 17.4724 33.62 16.0835 34.0169Z" fill="#616161"/>
<path d="M4.7812 8.38618V5.28126H4.24995C4.14143 5.28128 4.0355 5.24805 3.94643 5.18605C3.85736 5.12405 3.78942 5.03625 3.75175 4.93447C3.71408 4.83269 3.7085 4.72182 3.73575 4.61677C3.763 4.51172 3.82178 4.41754 3.90417 4.34691L7.62292 1.15941C7.71908 1.07657 7.84178 1.03101 7.9687 1.03101C8.09562 1.03101 8.21832 1.07657 8.31448 1.15941L12.0332 4.34691C12.1156 4.41754 12.1744 4.51172 12.2017 4.61677C12.2289 4.72182 12.2233 4.83269 12.1857 4.93447C12.148 5.03625 12.08 5.12405 11.991 5.18605C11.9019 5.24805 11.796 5.28128 11.6875 5.28126H11.1562V9.40748C12.9832 9.75968 14.7971 10.1605 16.5981 10.6099C18.301 11.0375 19.8507 11.4673 21.25 11.8835V10.0109C20.7705 9.93263 20.3389 9.67471 20.0428 9.28956C19.7468 8.90441 19.6085 8.42095 19.6562 7.93751C19.6562 7.10847 20.2349 3.05095 21.7812 3.05095C23.3275 3.05095 23.9062 7.10847 23.9062 7.93751C23.9539 8.42095 23.8156 8.9044 23.5196 9.28955C23.2235 9.67469 22.7919 9.93261 22.3125 10.0109V12.2056C23.7335 12.6452 24.9765 13.0638 26.0312 13.4409V11.6046C25.5518 11.5264 25.1201 11.2684 24.8241 10.8833C24.528 10.4981 24.3898 10.0147 24.4375 9.53126C24.4375 8.70222 25.0162 4.6447 26.5625 4.6447C28.1087 4.6447 28.6875 8.70222 28.6875 9.53126C28.7351 10.0147 28.5969 10.4981 28.3008 10.8833C28.0048 11.2684 27.5731 11.5264 27.0937 11.6046V13.8302C28.2975 14.2811 29.187 14.6503 29.7331 14.8879C30.8986 15.3947 32.0565 15.9348 33.1748 16.4935L32.7001 17.444C31.5984 16.8935 30.4576 16.3618 29.3092 15.8622C25.1044 14.1139 20.7675 12.7021 16.3393 11.6402C11.1347 10.3346 5.83325 9.45101 0.486576 8.99794L0.575829 7.93959C1.97836 8.05804 3.38015 8.2069 4.7812 8.38618ZM27.625 9.53126C27.625 8.33025 26.991 6.10304 26.5625 5.73365C26.1339 6.10304 25.5 8.33025 25.5 9.53126C25.5 10.2659 25.8276 10.5938 26.5625 10.5938C27.2973 10.5938 27.625 10.2659 27.625 9.53126ZM22.8437 7.93751C22.8437 6.7365 22.2097 4.50929 21.7812 4.1399C21.3527 4.50929 20.7187 6.7365 20.7187 7.93751C20.7187 8.67213 21.0463 9.00001 21.7812 9.00001C22.5161 9.00001 22.8437 8.67213 22.8437 7.93751ZM7.43745 8.76341C7.79173 8.81808 8.14623 8.87109 8.49995 8.92952V7.40626H7.43745V8.76341ZM5.8437 8.53044C6.02074 8.55487 6.19801 8.57719 6.37495 8.60255V6.87501C6.37493 6.80524 6.38866 6.73615 6.41535 6.67169C6.44205 6.60723 6.48118 6.54866 6.53051 6.49932C6.57985 6.44999 6.63842 6.41086 6.70288 6.38417C6.76734 6.35747 6.83643 6.34375 6.9062 6.34376H9.0312C9.10097 6.34375 9.17006 6.35747 9.23452 6.38417C9.29899 6.41086 9.35756 6.44999 9.40689 6.49932C9.45623 6.54866 9.49536 6.60723 9.52205 6.67169C9.54874 6.73615 9.56247 6.80524 9.56245 6.87501V9.11467C9.73959 9.14586 9.91676 9.1766 10.0937 9.20873V5.28126H5.8437V8.53044ZM10.2514 4.21876L7.9687 2.26237L5.68599 4.21876H10.2514Z" fill="#616161"/>
<path d="M16.5979 13.6527C17.65 13.9162 18.7281 14.2062 19.8025 14.5139L19.5099 15.5349C18.4469 15.2309 17.3802 14.944 16.3393 14.683C11.1347 13.3775 5.83324 12.4938 0.486563 12.0408L0.575811 10.9824C5.97962 11.4401 11.3377 12.3331 16.5979 13.6527Z" fill="#616161"/>
<path d="M16.598 16.4535L17.1318 16.5889L16.8683 17.6182L16.3394 17.4838C11.1348 16.1782 5.83336 15.2946 0.486685 14.8415L0.575933 13.7832C5.97975 14.2409 11.3378 15.1339 16.598 16.4535Z" fill="#616161"/>
<path d="M14.9958 19.1078L14.7541 20.1423C10.0591 19.046 5.29074 18.2914 0.486605 17.8845L0.575854 16.8262C5.43137 17.2371 10.2507 17.9996 14.9958 19.1078Z" fill="#616161"/>
</g>
<defs>
<clipPath id="clip0_8_464">
<rect width="34" height="34" fill="white" transform="matrix(-1 0 0 1 34 0.5)"/>
</clipPath>
</defs>
</svg>
