<svg width="35" height="35" viewBox="0 0 35 35" fill="none" xmlns="http://www.w3.org/2000/svg">
<g clip-path="url(#clip0_15_293)">
<path d="M27.986 0.5C24.3931 0.5 21.4701 3.42221 21.4701 7.01419V9.9083C21.4701 9.9083 16.8328 7.45712 16.7509 7.41189C16.1171 7.0622 15.9417 7.06213 15.3078 7.41189C15.2259 7.45712 6.26721 12.1904 6.26721 12.1904C5.50772 12.5899 5.40094 12.7047 5.08 13.2384C5.02767 13.3255 0.717241 20.16 0.717241 20.16C0.506401 20.4935 0.446503 20.8879 0.548636 21.2704C0.656015 21.6726 0.936448 22.0187 1.31742 22.2197C1.55954 22.3479 1.82091 22.4089 2.07877 22.4089C2.49062 22.4089 2.89258 22.2524 3.19074 21.9648V26.2842C3.19074 26.5592 3.41373 26.7822 3.68879 26.7822C3.96384 26.7822 4.18684 26.5592 4.18684 26.2842V20.4709C4.18684 20.4709 7.44964 15.3008 7.48404 15.2459C7.63903 14.9983 7.70504 14.8951 7.7826 14.8264C7.87112 14.7479 8.02598 14.6627 8.35801 14.4872L15.8621 10.5261C15.9152 10.4979 15.961 10.4728 16.001 10.4509C16.0104 10.4458 16.02 10.4406 16.0295 10.4354C16.039 10.4406 16.0485 10.4458 16.0579 10.4509C16.0979 10.4729 16.1437 10.4979 16.1979 10.5267C16.1979 10.5267 24.0467 14.6714 24.1429 14.7309C24.2006 14.7667 24.2431 14.797 24.2763 14.8264C24.3538 14.8951 24.4199 14.9983 24.5749 15.246C24.6093 15.3009 27.872 20.4709 27.872 20.4709V31.1434H22.2327V24.2146H23.0711C23.5793 24.2146 23.9927 23.8012 23.9927 23.293V21.8699C23.9927 21.3618 23.5793 20.9483 23.0711 20.9483H17.4185C17.1434 20.9483 16.9204 21.1713 16.9204 21.4464C16.9204 21.7214 17.1434 21.9444 17.4185 21.9444H22.9966V23.2185H9.06391V21.9444H15.1202C15.3952 21.9444 15.6182 21.7214 15.6182 21.4464C15.6182 21.1713 15.3952 20.9483 15.1202 20.9483H8.9894C8.48126 20.9483 8.06782 21.3618 8.06782 21.8699V23.293C8.06782 23.8012 8.48126 24.2146 8.9894 24.2146H9.82778V31.1434H4.18677V28.5825C4.18677 28.3075 3.96378 28.0845 3.68872 28.0845C3.41367 28.0845 3.19067 28.3075 3.19067 28.5825V33.665C3.19067 34.1255 3.56527 34.5 4.02567 34.5H33.6367C34.1126 34.5 34.4999 34.1127 34.4999 33.6368V7.01419C34.5 3.42221 31.5778 0.5 27.986 0.5ZM9.82785 33.5039H4.18677V32.1395H9.82778L9.82785 33.5039ZM20.4384 24.2146L16.0303 28.1887L11.6221 24.2146H20.4384ZM10.8239 24.8361L15.2865 28.8593L10.8239 32.8824V24.8361ZM11.6221 33.5039L16.0303 29.5298L20.4384 33.5039H11.6221ZM21.2366 32.8824L16.7741 28.8593L21.2366 24.8361V32.8824ZM27.8719 33.5039H22.2327V32.1395H27.8719V33.5039ZM31.421 20.3008C31.3979 20.253 31.3723 20.2061 31.3435 20.1602L27.8941 14.6973H33.5039V20.3008H31.421ZM22.4662 7.01419C22.4662 3.97152 24.9424 1.49609 27.986 1.49609C31.0285 1.49609 33.5039 3.97145 33.5039 7.01419V7.09965H22.4662V7.01419ZM22.4662 8.09575H33.5039V13.7012H27.2651C27.2651 13.7012 27.0311 13.3256 26.9787 13.2386C26.6579 12.705 26.5511 12.5901 25.7922 12.1909L22.4662 10.4344V8.09575H22.4662ZM28.7911 20.0606C28.7911 20.0606 25.4526 14.771 25.419 14.7174C25.1004 14.2084 24.9865 14.0649 24.5371 13.8081C24.5025 13.7884 16.5731 9.59746 16.5363 9.57734C16.1976 9.39173 16.0152 9.35687 15.735 9.47295C15.7326 9.47394 15.73 9.4752 15.7275 9.47626C15.6866 9.49346 7.89257 13.6065 7.89257 13.6065C7.11382 14.0183 7.03188 14.091 6.63962 14.7174C6.60608 14.771 3.26751 20.0607 3.26751 20.0607C3.26684 20.0618 3.26644 20.0629 3.26578 20.0639L2.58219 21.147C2.42448 21.3972 2.05858 21.4854 1.78273 21.3392C1.64593 21.2671 1.54685 21.1484 1.51093 21.0138C1.48994 20.9351 1.48131 20.8156 1.55934 20.6921C1.55934 20.6921 5.8782 13.8441 5.93365 13.7519C6.16262 13.3711 6.16262 13.3711 6.73166 13.0717C6.73166 13.0717 15.9749 8.18161 16.0293 8.15677C16.0838 8.18161 25.327 13.0717 25.327 13.0717C25.3272 13.0718 25.3275 13.072 25.3277 13.0721C25.8961 13.3711 25.8961 13.3711 26.1251 13.752C26.1805 13.8441 26.2457 13.9525 26.3281 14.0831L30.5006 20.6912C30.5782 20.8147 30.5693 20.9348 30.5482 21.0138C30.5121 21.1488 30.4133 21.2675 30.2778 21.3391C29.9972 21.4873 29.6373 21.4005 29.4763 21.1468L28.7929 20.0639C28.7922 20.0628 28.7918 20.0616 28.7911 20.0606ZM33.5039 33.5039H28.868V27.8985H33.5039V33.5039ZM28.868 26.9024V21.9625C29.3536 22.4301 30.114 22.5518 30.7432 22.2198C31.115 22.0229 31.3904 21.6875 31.5027 21.297H33.5039V26.9025H28.868V26.9024Z" fill="#616161"/>
<path d="M19.4431 16.2962C19.4431 14.4138 17.9117 12.8823 16.0293 12.8823C14.148 12.8823 12.6174 14.4138 12.6174 16.2962C12.6174 18.1786 14.148 19.7101 16.0293 19.7101C17.9117 19.71 19.4431 18.1786 19.4431 16.2962ZM13.6135 16.2962C13.6135 14.963 14.6973 13.8784 16.0293 13.8784C17.3624 13.8784 18.447 14.963 18.447 16.2962C18.447 17.6294 17.3624 18.714 16.0293 18.714C14.6973 18.7139 13.6135 17.6293 13.6135 16.2962Z" fill="#616161"/>
</g>
<defs>
<clipPath id="clip0_15_293">
<rect width="34" height="34" fill="white" transform="translate(0.5 0.5)"/>
</clipPath>
</defs>
</svg>
