<svg width="34" height="35" viewBox="0 0 34 35" fill="none" xmlns="http://www.w3.org/2000/svg">
<path d="M31.3426 28.1919C31.3434 28.1694 31.3438 28.1471 31.3438 28.125C31.3432 27.5616 31.1191 27.0215 30.7207 26.6231C30.3223 26.2247 29.7822 26.0006 29.2188 26V16.1719L31.1313 14.7375C31.1977 14.6877 31.2515 14.623 31.2884 14.5486C31.3253 14.4742 31.3443 14.3922 31.3438 14.3092C31.3433 14.2262 31.3233 14.1444 31.2855 14.0705C31.2476 13.9966 31.193 13.9326 31.126 13.8836L26.5626 10.5487V4.75C26.7034 4.75 26.8386 4.69403 26.9382 4.5944C27.0378 4.49477 27.0938 4.35965 27.0938 4.21875V2.09375C27.0938 1.95285 27.0378 1.81773 26.9382 1.7181C26.8386 1.61847 26.7034 1.5625 26.5626 1.5625H21.2501C21.1092 1.5625 20.974 1.61847 20.8744 1.7181C20.7748 1.81773 20.7188 1.95285 20.7188 2.09375V4.21875C20.7188 4.35965 20.7748 4.49477 20.8744 4.5944C20.974 4.69403 21.1092 4.75 21.2501 4.75V6.66655L17.3135 3.78983C17.2225 3.72335 17.1127 3.68752 17.0001 3.68752C16.8874 3.68752 16.7776 3.72335 16.6866 3.78983L2.87411 13.8836C2.80708 13.9326 2.75246 13.9966 2.71463 14.0705C2.67681 14.1444 2.65684 14.2262 2.65632 14.3092C2.65581 14.3922 2.67476 14.4742 2.71166 14.5486C2.74856 14.623 2.80238 14.6877 2.8688 14.7375L4.7813 16.1719V26C4.21791 26.0006 3.67778 26.2247 3.2794 26.6231C2.88102 27.0215 2.65693 27.5616 2.6563 28.125C2.6563 28.1471 2.6567 28.1694 2.6575 28.1919C2.15632 28.3208 1.71939 28.6281 1.42868 29.0562C1.13797 29.4843 1.01346 30.0038 1.07851 30.5171C1.14356 31.0305 1.3937 31.5025 1.782 31.8446C2.1703 32.1866 2.67008 32.3752 3.18755 32.375H30.8126C31.33 32.3752 31.8298 32.1866 32.2181 31.8446C32.6064 31.5025 32.8565 31.0305 32.9216 30.5171C32.9866 30.0038 32.8621 29.4843 32.5714 29.0562C32.2807 28.6281 31.8438 28.3208 31.3426 28.1919ZM21.7813 2.625H26.0313V3.6875H21.7813V2.625ZM22.3126 7.40625V4.75H25.5001V9.7723L22.2623 7.40625H22.3126ZM17.0001 4.8767L29.9197 14.3181L28.6827 15.2458L17.3126 6.9766C17.2218 6.91054 17.1123 6.87496 17.0001 6.87496C16.8878 6.87496 16.7784 6.91054 16.6875 6.9766L5.3174 15.2458L4.08038 14.3181L17.0001 4.8767ZM2.12505 30.25C2.12535 29.971 2.2352 29.7034 2.43096 29.5046C2.62671 29.3059 2.8927 29.192 3.17161 29.1875H3.17288C3.20004 29.1913 3.2272 29.1945 3.25489 29.1963C3.34292 29.2019 3.43096 29.1854 3.51104 29.1485C3.59113 29.1115 3.66075 29.0551 3.71362 28.9845C3.76648 28.9139 3.80094 28.8313 3.81386 28.744C3.82679 28.6567 3.81779 28.5676 3.78767 28.4847C3.7437 28.3698 3.72039 28.248 3.7188 28.125C3.71914 27.8433 3.83119 27.5733 4.03037 27.3741C4.22956 27.1749 4.49961 27.0628 4.7813 27.0625V31.3125H3.18755C2.90586 31.3122 2.63581 31.2001 2.43662 31.0009C2.23743 30.8017 2.12539 30.5317 2.12505 30.25ZM24.9688 31.3125H18.5938V19.625H24.9688V31.3125ZM26.0313 31.3125V19.0938C26.0313 18.9529 25.9753 18.8177 25.8757 18.7181C25.7761 18.6185 25.6409 18.5625 25.5001 18.5625H18.0626C17.9217 18.5625 17.7865 18.6185 17.6869 18.7181C17.5873 18.8177 17.5313 18.9529 17.5313 19.0938V31.3125H5.8438V16.1768L17.0001 8.06314L28.1563 16.1768V31.3125H26.0313ZM30.8126 31.3125H29.2188V27.0625C29.5005 27.0628 29.7705 27.1749 29.9697 27.3741C30.1689 27.5733 30.281 27.8433 30.2813 28.125C30.2797 28.2481 30.2564 28.37 30.2124 28.485C30.1823 28.5679 30.1733 28.657 30.1862 28.7443C30.1992 28.8315 30.2336 28.9142 30.2865 28.9848C30.3394 29.0554 30.409 29.1117 30.4891 29.1487C30.5691 29.1857 30.6572 29.2022 30.7452 29.1966C30.7729 29.1948 30.8001 29.1916 30.8272 29.1878H30.8285C31.1103 29.1899 31.3797 29.3038 31.5775 29.5046C31.7752 29.7054 31.8851 29.9764 31.883 30.2582C31.8809 30.54 31.7669 30.8094 31.5662 31.0072C31.3654 31.205 31.0943 31.3149 30.8126 31.3128V31.3125Z" fill="#616161"/>
<path d="M14.875 18.5625H8.5C8.3591 18.5625 8.22398 18.6185 8.12435 18.7181C8.02472 18.8177 7.96875 18.9529 7.96875 19.0938V26.5312C7.96875 26.6721 8.02472 26.8073 8.12435 26.9069C8.22398 27.0065 8.3591 27.0625 8.5 27.0625H14.875C15.0159 27.0625 15.151 27.0065 15.2507 26.9069C15.3503 26.8073 15.4062 26.6721 15.4062 26.5312V19.0938C15.4062 18.9529 15.3503 18.8177 15.2507 18.7181C15.151 18.6185 15.0159 18.5625 14.875 18.5625ZM14.3438 22.2812H12.2188V19.625H14.3438V22.2812ZM11.1562 19.625V22.2812H9.03125V19.625H11.1562ZM9.03125 23.3438H11.1562V26H9.03125V23.3438ZM12.2188 26V23.3438H14.3438V26H12.2188Z" fill="#616161"/>
<path d="M20.6783 25.1409C20.7906 24.8698 20.6619 24.5591 20.3908 24.4468C20.1198 24.3345 19.809 24.4632 19.6967 24.7343C19.5844 25.0054 19.7132 25.3161 19.9842 25.4284C20.2553 25.5407 20.5661 25.412 20.6783 25.1409Z" fill="#616161"/>
</svg>
