<svg width="34" height="35" viewBox="0 0 34 35" fill="none" xmlns="http://www.w3.org/2000/svg">
<path d="M31.3438 23.2601H28.0929C27.1798 21.2841 25.9922 19.4469 24.5654 17.8029C24.4716 17.7 24.3412 17.6381 24.2022 17.6304C24.0632 17.6228 23.9267 17.67 23.8222 17.7619C23.7177 17.8539 23.6534 17.9832 23.6433 18.1221C23.6332 18.2609 23.6779 18.3982 23.768 18.5043C25.0173 19.946 26.0728 21.5448 26.9077 23.2601H18.7705C16.4109 22.7985 15.626 21.7572 15.6242 21.7572C15.2755 21.0974 14.7202 20.5701 14.0434 20.2558C13.3665 19.9416 12.6054 19.8577 11.8764 20.0171C11.0315 18.9463 10.1252 18.427 9.18018 18.4752C7.96749 18.5349 7.09434 19.5294 6.71511 20.055C6.48 20.0255 6.24265 20.0181 6.00616 20.0329C6.76054 18.4076 8.41676 15.1945 10.2787 13.8351C12.1425 12.5972 13.7922 14.8724 14.8873 17.1258C15.6011 18.7453 16.767 20.1245 18.2451 21.0978C18.8957 21.515 21.4786 22.8851 21.6739 21.7588C21.6843 21.6898 21.6811 21.6194 21.6643 21.5517C21.6476 21.484 21.6176 21.4203 21.5762 21.3641C21.5348 21.308 21.4827 21.2606 21.423 21.2246C21.3632 21.1886 21.297 21.1647 21.228 21.1543C19.3856 20.7909 17.7606 19.7165 16.7045 18.1637C17.6937 16.4791 19.4863 14.8484 21.5279 16.3467C21.9351 16.586 22.5041 17.5263 23.051 16.9697C23.098 16.9181 23.1342 16.8577 23.1578 16.7921C23.1814 16.7264 23.1918 16.6568 23.1885 16.5871C23.1851 16.5175 23.1681 16.4491 23.1383 16.3861C23.1085 16.323 23.0666 16.2664 23.015 16.2195C21.5076 14.5686 19.0291 14.1088 17.3323 15.7101C16.8701 16.1523 16.4543 16.6405 16.0914 17.1672C16.0091 17.0106 15.9295 16.852 15.8558 16.689C14.4083 13.7061 12.3212 11.2831 9.65205 12.9769C7.10006 14.8407 5.03984 19.5365 4.65265 20.459C3.36952 21.1757 3.06 23.1143 3.14593 23.2601H2.65628C2.51687 23.2624 2.38393 23.3193 2.28614 23.4187C2.18835 23.5181 2.13354 23.6519 2.13354 23.7914C2.13355 23.9308 2.18836 24.0646 2.28616 24.164C2.38396 24.2634 2.5169 24.3204 2.65631 24.3226C4.84146 24.3236 30.065 24.3219 31.3438 24.3226C31.4832 24.3204 31.6161 24.2634 31.7139 24.164C31.8117 24.0646 31.8665 23.9308 31.8665 23.7914C31.8665 23.6519 31.8117 23.5181 31.7139 23.4187C31.6161 23.3193 31.4832 23.2624 31.3438 23.2601ZM4.17023 23.2601C4.29928 22.2602 4.95648 20.7058 6.8604 21.1559C6.96994 21.178 7.08365 21.1652 7.18553 21.1193C7.28742 21.0734 7.37237 20.9968 7.42845 20.9001C7.43598 20.8871 8.20043 19.5849 9.23595 19.5362C9.89145 19.4993 10.5576 19.9792 11.2429 20.9432C11.3126 21.0413 11.4136 21.1128 11.5293 21.1461C11.645 21.1794 11.7685 21.1724 11.8797 21.1263C11.9482 21.0972 13.5718 20.4487 14.7318 22.3335C15.0237 22.7063 15.3832 23.0206 15.7915 23.2601H4.17023Z" fill="#616161"/>
<path d="M27.9345 26.3755H6.06555C5.92608 26.3777 5.79305 26.4346 5.69519 26.534C5.59733 26.6334 5.54248 26.7673 5.54248 26.9068C5.54248 27.0462 5.59734 27.1801 5.69521 27.2795C5.79308 27.3789 5.92611 27.4358 6.06558 27.438H27.9345C28.074 27.4358 28.207 27.3789 28.3048 27.2795C28.4027 27.1801 28.4576 27.0462 28.4576 26.9067C28.4575 26.7672 28.4027 26.6333 28.3048 26.534C28.207 26.4346 28.0739 26.3776 27.9345 26.3755Z" fill="#616161"/>
<path d="M24.5255 29.491H9.47459C9.33506 29.493 9.20194 29.5499 9.104 29.6493C9.00607 29.7487 8.95117 29.8827 8.95117 30.0222C8.95118 30.1618 9.00608 30.2957 9.10402 30.3951C9.20196 30.4945 9.33508 30.5514 9.47461 30.5535H24.5255C24.665 30.5514 24.7981 30.4945 24.896 30.3951C24.994 30.2957 25.0489 30.1618 25.0489 30.0222C25.0489 29.8827 24.994 29.7487 24.896 29.6493C24.7981 29.5499 24.665 29.493 24.5255 29.491Z" fill="#616161"/>
<path d="M24.5254 11.7294C27.8046 11.6252 27.8034 6.87101 24.5253 6.76709C21.2463 6.87143 21.2466 11.6258 24.5254 11.7294ZM24.5254 7.82959C24.8989 7.83375 25.2557 7.98505 25.5184 8.25065C25.781 8.51625 25.9283 8.87473 25.9283 9.24827C25.9283 9.62181 25.781 9.98028 25.5183 10.2459C25.2557 10.5115 24.8989 10.6628 24.5253 10.6669C24.1518 10.6627 23.795 10.5114 23.5324 10.2458C23.2697 9.98024 23.1224 9.62177 23.1224 9.24823C23.1224 8.87468 23.2697 8.51622 23.5324 8.25062C23.7951 7.98503 24.1519 7.83374 24.5254 7.82959Z" fill="#616161"/>
<path d="M24.5253 6.02422C24.6628 6.02226 24.7939 5.96629 24.8904 5.8684C24.9869 5.77051 25.041 5.63858 25.041 5.50112C25.041 5.36367 24.9869 5.23173 24.8904 5.13385C24.7939 5.03596 24.6628 4.97999 24.5253 4.97803C24.3879 4.97999 24.2567 5.03596 24.1602 5.13385C24.0637 5.23173 24.0096 5.36367 24.0096 5.50112C24.0096 5.63858 24.0637 5.77051 24.1602 5.8684C24.2567 5.96629 24.3879 6.02226 24.5253 6.02422Z" fill="#616161"/>
<path d="M22.2455 6.96842C22.3405 6.86969 22.393 6.73764 22.3916 6.60064C22.3903 6.46364 22.3353 6.33263 22.2384 6.23576C22.1416 6.13888 22.0105 6.08387 21.8735 6.08254C21.7366 6.08122 21.6045 6.13368 21.5058 6.22867C21.4108 6.3274 21.3583 6.45945 21.3596 6.59645C21.361 6.73345 21.416 6.86446 21.5129 6.96134C21.6097 7.05821 21.7407 7.11322 21.8777 7.11455C22.0147 7.11587 22.1468 7.06341 22.2455 6.96842Z" fill="#616161"/>
<path d="M20.7781 9.77129C20.9156 9.76933 21.0467 9.71336 21.1432 9.61547C21.2397 9.51758 21.2938 9.38565 21.2938 9.24819C21.2938 9.11074 21.2397 8.9788 21.1432 8.88092C21.0467 8.78303 20.9156 8.72706 20.7781 8.7251C20.6407 8.72706 20.5096 8.78303 20.4131 8.88092C20.3165 8.9788 20.2625 9.11074 20.2625 9.24819C20.2625 9.38565 20.3165 9.51758 20.4131 9.61547C20.5096 9.71336 20.6407 9.76933 20.7781 9.77129Z" fill="#616161"/>
<path d="M22.2455 12.268C22.3405 12.1693 22.393 12.0372 22.3916 11.9002C22.3903 11.7632 22.3353 11.6322 22.2384 11.5353C22.1416 11.4384 22.0105 11.3834 21.8735 11.3821C21.7366 11.3808 21.6045 11.4332 21.5058 11.5282C21.4108 11.627 21.3583 11.759 21.3596 11.896C21.361 12.033 21.416 12.164 21.5129 12.2609C21.6097 12.3578 21.7407 12.4128 21.8777 12.4141C22.0147 12.4154 22.1468 12.363 22.2455 12.268Z" fill="#616161"/>
<path d="M24.0023 12.9956C24.0044 13.133 24.0605 13.264 24.1583 13.3604C24.2562 13.4567 24.388 13.5108 24.5254 13.5108C24.6628 13.5108 24.7946 13.4567 24.8925 13.3604C24.9904 13.264 25.0464 13.133 25.0485 12.9956C25.0464 12.8583 24.9904 12.7273 24.8925 12.6309C24.7946 12.5345 24.6628 12.4805 24.5254 12.4805C24.388 12.4805 24.2562 12.5345 24.1583 12.6309C24.0605 12.7273 24.0044 12.8583 24.0023 12.9956Z" fill="#616161"/>
<path d="M26.8051 11.5282C26.7102 11.6269 26.6577 11.7589 26.6591 11.8959C26.6604 12.0329 26.7154 12.1639 26.8123 12.2608C26.9092 12.3576 27.0402 12.4126 27.1771 12.414C27.3141 12.4153 27.4462 12.3629 27.5449 12.2679C27.6399 12.1692 27.6923 12.0371 27.6909 11.9002C27.6896 11.7632 27.6346 11.6322 27.5377 11.5353C27.4409 11.4385 27.3099 11.3834 27.1729 11.3821C27.0359 11.3808 26.9039 11.4332 26.8051 11.5282Z" fill="#616161"/>
<path d="M28.2725 9.77129C28.41 9.76933 28.5411 9.71336 28.6376 9.61547C28.7341 9.51758 28.7882 9.38565 28.7882 9.24819C28.7882 9.11074 28.7341 8.9788 28.6376 8.88092C28.5411 8.78303 28.41 8.72706 28.2725 8.7251C28.1351 8.72706 28.0039 8.78303 27.9074 8.88092C27.8109 8.9788 27.7568 9.11074 27.7568 9.24819C27.7568 9.38565 27.8109 9.51758 27.9074 9.61547C28.0039 9.71336 28.1351 9.76933 28.2725 9.77129Z" fill="#616161"/>
<path d="M27.545 6.96842C27.6399 6.86969 27.6924 6.73764 27.6911 6.60064C27.6898 6.46364 27.6347 6.33263 27.5379 6.23576C27.441 6.13888 27.31 6.08387 27.173 6.08254C27.036 6.08122 26.9039 6.13368 26.8052 6.22867C26.7102 6.3274 26.6578 6.45945 26.6591 6.59645C26.6604 6.73345 26.7154 6.86446 26.8123 6.96134C26.9092 7.05821 27.0402 7.11322 27.1772 7.11455C27.3142 7.11587 27.4462 7.06341 27.545 6.96842Z" fill="#616161"/>
</svg>
