<svg width="35" height="35" viewBox="0 0 35 35" fill="none" xmlns="http://www.w3.org/2000/svg">
<path d="M26.7483 22.8875H8.28745C8.0677 22.8875 7.8894 22.7092 7.8894 22.4895V10.537C7.8894 10.3172 8.0677 10.1389 8.28745 10.1389H26.749C26.9688 10.1389 27.1471 10.3172 27.1471 10.537V22.4895C27.1464 22.7092 26.9688 22.8875 26.7483 22.8875ZM8.6855 22.0914H26.351V10.935H8.6855V22.0914Z" fill="#616161"/>
<path d="M28.1443 10.9351H22.9309C22.81 10.9351 22.6953 10.8798 22.6199 10.7851L18.7023 5.87583C18.607 5.75628 18.5883 5.5925 18.6547 5.45498C18.721 5.31746 18.8606 5.2297 19.0133 5.2297H23.6828C23.7947 5.2297 23.9019 5.27669 23.9772 5.3603L28.438 10.2703C28.5437 10.3871 28.5713 10.555 28.5071 10.6987C28.4442 10.8425 28.3018 10.9351 28.1443 10.9351ZM23.1223 10.139H27.2445L23.5066 6.0251H19.8398L23.1223 10.139ZM12.1048 10.9351H6.89149C6.73393 10.9351 6.59157 10.8425 6.5273 10.698C6.46372 10.5543 6.49067 10.3857 6.59641 10.2696L11.0579 5.35961C11.1332 5.27669 11.2403 5.229 11.3523 5.229H16.0217C16.1745 5.229 16.314 5.31677 16.3804 5.45429C16.4467 5.59181 16.4281 5.75559 16.3327 5.87514L12.4158 10.7851C12.3405 10.8805 12.2264 10.9351 12.1048 10.9351ZM7.79124 10.139H11.9134L15.1952 6.0251H11.5292L7.79124 10.139Z" fill="#616161"/>
<path d="M22.931 10.9349H12.1049C11.9522 10.9349 11.8126 10.8472 11.7463 10.7097C11.6799 10.5721 11.6986 10.4084 11.7939 10.2888L17.207 3.5047C17.2823 3.41002 17.397 3.35474 17.518 3.35474C17.6389 3.35474 17.7536 3.41002 17.8289 3.5047L23.242 10.2888C23.3373 10.4084 23.356 10.5721 23.2897 10.7097C23.2233 10.8479 23.0837 10.9349 22.931 10.9349ZM12.9321 10.1388H22.1038L17.518 4.39132L12.9321 10.1388Z" fill="#616161"/>
<path d="M17.518 9.53082C16.5913 9.53082 15.838 8.77687 15.838 7.85086C15.838 6.92415 16.592 6.1709 17.518 6.1709C18.4447 6.1709 19.1979 6.92484 19.1979 7.85086C19.1979 8.77687 18.4447 9.53082 17.518 9.53082ZM17.518 6.96631C17.0308 6.96631 16.6341 7.36297 16.6341 7.85017C16.6341 8.33736 17.0308 8.73403 17.518 8.73403C18.0052 8.73403 18.4018 8.33736 18.4018 7.85017C18.4018 7.36297 18.0052 6.96631 17.518 6.96631Z" fill="#616161"/>
<path d="M28.1698 24.5294H6.86594C6.64619 24.5294 6.4679 24.3511 6.4679 24.1313V22.4894C6.4679 22.2696 6.64619 22.0913 6.86594 22.0913H28.1698C28.3896 22.0913 28.5679 22.2696 28.5679 22.4894V24.1313C28.5679 24.3511 28.3896 24.5294 28.1698 24.5294ZM7.26399 23.7333H27.7711V22.8874H7.26399V23.7333Z" fill="#616161"/>
<path d="M19.5268 22.8875H15.5083C15.2885 22.8875 15.1102 22.7092 15.1102 22.4895V17.0923C15.1102 16.319 15.7391 15.6895 16.5131 15.6895H18.5227C19.296 15.6895 19.9255 16.3183 19.9255 17.0923V22.4895C19.9248 22.7092 19.7472 22.8875 19.5268 22.8875ZM15.9063 22.0914H19.1287V17.0923C19.1287 16.7578 18.8564 16.4856 18.522 16.4856H16.5124C16.1779 16.4856 15.9056 16.7578 15.9056 17.0923V22.0914H15.9063Z" fill="#616161"/>
<path d="M13.7918 19.6421H9.63645C9.4167 19.6421 9.2384 19.4638 9.2384 19.2441V15.8807C9.2384 15.661 9.4167 15.4827 9.63645 15.4827H13.7918C14.0115 15.4827 14.1898 15.661 14.1898 15.8807V19.2441C14.1898 19.4638 14.0115 19.6421 13.7918 19.6421ZM10.0345 18.846H13.3937V16.2788H10.0345V18.846Z" fill="#616161"/>
<path d="M11.7145 19.6421C11.4947 19.6421 11.3164 19.4638 11.3164 19.2441V15.8807C11.3164 15.661 11.4947 15.4827 11.7145 15.4827C11.9342 15.4827 12.1125 15.661 12.1125 15.8807V19.2441C12.1125 19.4638 11.9342 19.6421 11.7145 19.6421Z" fill="#616161"/>
<path d="M25.3545 19.7605H21.1992C20.9794 19.7605 20.8011 19.5823 20.8011 19.3625V15.9991C20.8011 15.7794 20.9794 15.6011 21.1992 15.6011H25.3545C25.5743 15.6011 25.7526 15.7794 25.7526 15.9991V19.3625C25.7526 19.5823 25.5743 19.7605 25.3545 19.7605ZM21.5972 18.9644H24.9565V16.3972H21.5972V18.9644Z" fill="#616161"/>
<path d="M23.2772 19.7605C23.0574 19.7605 22.8792 19.5823 22.8792 19.3625V15.9991C22.8792 15.7794 23.0574 15.6011 23.2772 15.6011C23.497 15.6011 23.6752 15.7794 23.6752 15.9991V19.3625C23.6752 19.5823 23.497 19.7605 23.2772 19.7605Z" fill="#616161"/>
<path d="M13.7918 18.1682H9.63645C9.4167 18.1682 9.2384 17.9899 9.2384 17.7701C9.2384 17.5504 9.4167 17.3721 9.63645 17.3721H13.7918C14.0115 17.3721 14.1898 17.5504 14.1898 17.7701C14.1898 17.9899 14.0115 18.1682 13.7918 18.1682Z" fill="#616161"/>
<path d="M25.3545 18.2863H21.1992C20.9794 18.2863 20.8011 18.108 20.8011 17.8883C20.8011 17.6685 20.9794 17.4902 21.1992 17.4902H25.3545C25.5743 17.4902 25.7526 17.6685 25.7526 17.8883C25.7526 18.108 25.5743 18.2863 25.3545 18.2863Z" fill="#616161"/>
<path d="M31.1331 24.5295H3.90269C3.68293 24.5295 3.50464 24.3512 3.50464 24.1314C3.50464 23.9117 3.68293 23.7334 3.90269 23.7334H31.1331C31.3528 23.7334 31.5311 23.9117 31.5311 24.1314C31.5311 24.3512 31.3528 24.5295 31.1331 24.5295Z" fill="#616161"/>
<path d="M14.3287 27.4926C13.0447 27.4926 11.8962 27.2535 10.7684 27.0185C8.69454 26.5866 6.73608 26.1789 4.02438 27.2404C3.81982 27.3205 3.58901 27.2196 3.50885 27.0144C3.42869 26.8098 3.52958 26.579 3.73413 26.4989C6.66629 25.3517 8.83413 25.803 10.9308 26.2397C12.9252 26.6551 14.8083 27.0469 17.3922 26.1817C20.1799 25.2481 22.2586 25.6807 24.2689 26.0994C26.3428 26.5314 28.3012 26.9391 31.0129 25.8776C31.2182 25.7975 31.4483 25.8983 31.5284 26.1036C31.6086 26.3088 31.5077 26.539 31.3025 26.6191C28.3703 27.7663 26.2025 27.315 24.1058 26.8783C22.1114 26.4629 20.2283 26.0711 17.6444 26.9363C16.4206 27.3461 15.3328 27.4926 14.3287 27.4926Z" fill="#616161"/>
<path d="M14.3287 29.6205C13.0447 29.6205 11.8962 29.3814 10.7684 29.1465C8.69454 28.7146 6.73608 28.3068 4.02438 29.3683C3.81982 29.4485 3.58901 29.3476 3.50885 29.1423C3.42869 28.9378 3.52958 28.707 3.73413 28.6268C6.66629 27.4796 8.83413 27.9309 10.9308 28.3677C12.9252 28.783 14.8083 29.1748 17.3922 28.3096C20.1799 27.376 22.2586 27.8086 24.2689 28.2274C26.3428 28.6593 28.3012 29.067 31.0129 28.0055C31.2182 27.9254 31.4483 28.0263 31.5284 28.2315C31.6086 28.4368 31.5077 28.6669 31.3025 28.747C28.3703 29.8942 26.2025 29.4429 24.1058 29.0062C22.1114 28.5909 20.2283 28.199 17.6444 29.0642C16.4206 29.474 15.3328 29.6205 14.3287 29.6205Z" fill="#616161"/>
<path d="M14.3287 31.7475C13.0447 31.7475 11.8962 31.5084 10.7684 31.2734C8.69454 30.8415 6.73608 30.4338 4.02438 31.4953C3.81982 31.5754 3.58901 31.4745 3.50885 31.2693C3.42869 31.0647 3.52958 30.8339 3.73413 30.7538C6.66629 29.6066 8.83413 30.0579 10.9308 30.4946C12.9252 30.9099 14.8083 31.3018 17.3922 30.4366C20.1799 29.5029 22.2586 29.9355 24.2689 30.3543C26.3428 30.7862 28.3012 31.194 31.0129 30.1332C31.2182 30.053 31.4483 30.1539 31.5284 30.3592C31.6086 30.5644 31.5077 30.7945 31.3025 30.8747C28.3703 32.0218 26.2025 31.5706 24.1058 31.1338C22.1114 30.7185 20.2283 30.3267 17.6444 31.1919C16.4206 31.601 15.3328 31.7475 14.3287 31.7475Z" fill="#616161"/>
<path d="M30.5264 22.942C29.2494 22.942 28.2107 21.9033 28.2107 20.6263C28.2107 20.0112 28.4595 19.4204 28.8886 18.9892C28.8119 18.7915 28.7725 18.5807 28.7725 18.3651C28.7725 17.4129 29.5472 16.6382 30.4995 16.6382C31.4518 16.6382 32.2264 17.4129 32.2264 18.3651C32.2264 18.5655 32.1919 18.7632 32.1248 18.9491C32.5796 19.3831 32.8428 19.9884 32.8428 20.6256C32.8428 21.9027 31.8042 22.942 30.5264 22.942ZM30.4995 17.4343C29.986 17.4343 29.5686 17.8517 29.5686 18.3651C29.5686 18.5448 29.6198 18.7196 29.7172 18.8696C29.8312 19.0458 29.7891 19.2801 29.6205 19.4052C29.2307 19.6954 29.0068 20.1405 29.0068 20.6256C29.0068 21.4638 29.6889 22.1459 30.5271 22.1459C31.3654 22.1459 32.0474 21.4638 32.0474 20.6256C32.0474 20.1329 31.807 19.6685 31.4041 19.3838C31.2327 19.2628 31.185 19.0292 31.2949 18.8509C31.384 18.7051 31.4317 18.5372 31.4317 18.3651C31.4303 17.8517 31.0129 17.4343 30.4995 17.4343Z" fill="#616161"/>
<path d="M30.5263 24.5294C30.3066 24.5294 30.1283 24.3511 30.1283 24.1314V19.7901C30.1283 19.5704 30.3066 19.3921 30.5263 19.3921C30.7461 19.3921 30.9244 19.5704 30.9244 19.7901V24.1314C30.9244 24.3511 30.7468 24.5294 30.5263 24.5294Z" fill="#616161"/>
<path d="M30.527 21.0209C30.422 21.0209 30.3169 20.9794 30.2388 20.8972C30.0875 20.7376 30.0937 20.486 30.2527 20.3347L30.9859 19.6374C31.1455 19.4861 31.3971 19.4923 31.5484 19.6512C31.6997 19.8109 31.6935 20.0624 31.5346 20.2137L30.8014 20.911C30.724 20.985 30.6251 21.0209 30.527 21.0209Z" fill="#616161"/>
<path d="M30.5264 21.8598C30.4275 21.8598 30.3294 21.8232 30.252 21.7499L29.5188 21.0526C29.3599 20.9013 29.3529 20.6491 29.505 20.4901C29.6563 20.3312 29.9086 20.3243 30.0675 20.4763L30.8007 21.1736C30.9597 21.3249 30.9666 21.5771 30.8145 21.7361C30.7371 21.819 30.6321 21.8598 30.5264 21.8598Z" fill="#616161"/>
<path d="M4.50946 22.942C3.23238 22.942 2.19373 21.9033 2.19373 20.6263C2.19373 20.0112 2.44251 19.4204 2.87165 18.9892C2.79495 18.7915 2.75555 18.5807 2.75555 18.3651C2.75555 17.4129 3.53023 16.6382 4.48251 16.6382C5.43478 16.6382 6.20946 17.4129 6.20946 18.3651C6.20946 18.5655 6.1749 18.7632 6.10787 18.9491C6.56259 19.3831 6.82588 19.9884 6.82588 20.6256C6.82519 21.9027 5.78653 22.942 4.50946 22.942ZM4.48182 17.4343C3.96836 17.4343 3.55096 17.8517 3.55096 18.3651C3.55096 18.5448 3.6021 18.7196 3.69954 18.8696C3.81356 19.0458 3.77141 19.2801 3.60279 19.4052C3.21303 19.6954 2.98913 20.1405 2.98913 20.6256C2.98913 21.4638 3.67121 22.1459 4.50946 22.1459C5.34771 22.1459 6.02978 21.4638 6.02978 20.6256C6.02978 20.1329 5.78929 19.6685 5.38641 19.3838C5.21503 19.2628 5.16734 19.0292 5.27722 18.8509C5.36637 18.7051 5.41405 18.5372 5.41405 18.3651C5.41267 17.8517 4.99527 17.4343 4.48182 17.4343Z" fill="#616161"/>
<path d="M4.5095 24.5294C4.28974 24.5294 4.11145 24.3511 4.11145 24.1314V19.7901C4.11145 19.5704 4.28974 19.3921 4.5095 19.3921C4.72926 19.3921 4.90755 19.5704 4.90755 19.7901V24.1314C4.90686 24.3511 4.72926 24.5294 4.5095 24.5294Z" fill="#616161"/>
<path d="M4.50943 21.0209C4.40439 21.0209 4.29935 20.9794 4.22126 20.8972C4.06992 20.7376 4.07614 20.486 4.23508 20.3347L4.96829 19.6374C5.12793 19.4861 5.37947 19.4923 5.53081 19.6512C5.68216 19.8109 5.67594 20.0624 5.51699 20.2137L4.78378 20.911C4.70638 20.985 4.60756 21.0209 4.50943 21.0209Z" fill="#616161"/>
<path d="M4.50878 21.8598C4.40996 21.8598 4.31183 21.8231 4.23443 21.7499L3.50122 21.0526C3.34228 20.9013 3.33537 20.649 3.4874 20.4901C3.63874 20.3311 3.89098 20.3249 4.04992 20.4763L4.78313 21.1735C4.94207 21.3249 4.94898 21.5771 4.79695 21.7361C4.71955 21.819 4.61451 21.8598 4.50878 21.8598Z" fill="#616161"/>
</svg>
