<svg width="35" height="35" viewBox="0 0 35 35" fill="none" xmlns="http://www.w3.org/2000/svg">
<path d="M33.4375 9.53125C33.5784 9.53125 33.7135 9.47528 33.8132 9.37565C33.9128 9.27602 33.9688 9.1409 33.9688 9V6.875C33.9688 6.7341 33.9128 6.59898 33.8132 6.49935C33.7135 6.39972 33.5784 6.34375 33.4375 6.34375H32.5344L24.7011 1.1205C24.6137 1.06246 24.5112 1.03142 24.4062 1.03125H10.5938C10.4888 1.03142 10.3863 1.06246 10.2989 1.1205L2.46563 6.34375H1.5625C1.4216 6.34375 1.28648 6.39972 1.18685 6.49935C1.08722 6.59898 1.03125 6.7341 1.03125 6.875V9C1.03125 9.1409 1.08722 9.27602 1.18685 9.37565C1.28648 9.47528 1.4216 9.53125 1.5625 9.53125H2.09375V22.0427C1.77156 22.2282 1.5038 22.4951 1.31731 22.8167C1.13082 23.1383 1.03217 23.5032 1.03125 23.875C1.03125 24.2977 1.19916 24.7031 1.49805 25.002C1.79693 25.3008 2.20231 25.4688 2.625 25.4688H6.875C7.29769 25.4688 7.70307 25.3008 8.00195 25.002C8.30084 24.7031 8.46875 24.2977 8.46875 23.875C8.46818 23.6956 8.44461 23.5171 8.39862 23.3438H9V24.9375C9 25.0784 9.05597 25.2135 9.1556 25.3132C9.25523 25.4128 9.39035 25.4688 9.53125 25.4688H11.6562C11.7971 25.4688 11.9323 25.4128 12.0319 25.3132C12.1315 25.2135 12.1875 25.0784 12.1875 24.9375V23.3438H14.0591L12.2528 27.8647C4.92956 28.6642 1.03125 31.1101 1.03125 33.4375C1.03125 33.5784 1.08722 33.7135 1.18685 33.8132C1.28648 33.9128 1.4216 33.9688 1.5625 33.9688H7.9375C8.0784 33.9688 8.21352 33.9128 8.31315 33.8132C8.41278 33.7135 8.46875 33.5784 8.46875 33.4375C8.46875 32.3283 11.9043 30.7812 17.5 30.7812C23.0957 30.7812 26.5312 32.3283 26.5312 33.4375C26.5312 33.5784 26.5872 33.7135 26.6868 33.8132C26.7865 33.9128 26.9216 33.9688 27.0625 33.9688H33.4375C33.5784 33.9688 33.7135 33.9128 33.8132 33.8132C33.9128 33.7135 33.9688 33.5784 33.9688 33.4375C33.9688 31.1101 30.0704 28.6642 22.7493 27.8647L20.9409 23.3438H22.8125V24.9375C22.8125 25.0784 22.8685 25.2135 22.9681 25.3132C23.0677 25.4128 23.2029 25.4688 23.3438 25.4688H25.4688C25.6096 25.4688 25.7448 25.4128 25.8444 25.3132C25.944 25.2135 26 25.0784 26 24.9375V23.3438H26.6014C26.5554 23.5171 26.5318 23.6956 26.5312 23.875C26.5312 24.2977 26.6992 24.7031 26.998 25.002C27.2969 25.3008 27.7023 25.4688 28.125 25.4688H32.375C32.7977 25.4688 33.2031 25.3008 33.5019 25.002C33.8008 24.7031 33.9688 24.2977 33.9688 23.875C33.9678 23.5032 33.8692 23.1383 33.6827 22.8167C33.4962 22.4951 33.2284 22.2282 32.9062 22.0427V9.53125H33.4375ZM32.9062 8.46875H24.1937L22.745 7.40625H32.9062V8.46875ZM10.0625 11.6562V10.5938H24.9375V11.6562H10.0625ZM17.5 4.8775L23.8458 9.53125H21.3893L17.8087 6.97381C17.7186 6.90951 17.6107 6.87495 17.5 6.87495C17.3893 6.87495 17.2814 6.90951 17.1913 6.97381L13.6107 9.53125H11.1542L17.5 4.8775ZM19.5607 9.53125H15.4393L17.5 8.05916L19.5607 9.53125ZM10.7531 2.09375H24.2469L30.6219 6.34375H21.2963L17.814 3.79003C17.7229 3.7233 17.6129 3.68733 17.5 3.68733C17.3871 3.68733 17.2771 3.7233 17.186 3.79003L13.7037 6.34375H4.37813L10.7531 2.09375ZM2.09375 7.40625H12.255L10.8062 8.46875H2.09375V7.40625ZM6.875 24.4062H2.625C2.4841 24.4062 2.34898 24.3503 2.24935 24.2507C2.14972 24.151 2.09375 24.0159 2.09375 23.875C2.09372 23.5959 2.20347 23.3281 2.39929 23.1293C2.59512 22.9305 2.86129 22.8167 3.14031 22.8125C3.15412 22.8125 3.21044 22.821 3.22372 22.8215C3.31185 22.8282 3.40022 22.8122 3.48039 22.775C3.56057 22.7378 3.62986 22.6806 3.68166 22.609C3.73442 22.5384 3.76879 22.4559 3.78168 22.3687C3.79457 22.2815 3.78557 22.1925 3.7555 22.1097C3.70127 21.9755 3.67857 21.8306 3.68916 21.6863C3.69976 21.542 3.74335 21.402 3.81659 21.2772C3.88865 21.1379 3.98939 21.0154 4.11217 20.9178C4.23496 20.8202 4.37701 20.7497 4.529 20.7109C4.78654 20.6543 5.05597 20.6992 5.28125 20.8363C5.36239 20.8835 5.45459 20.9083 5.54847 20.9083C5.64235 20.9083 5.73455 20.8835 5.81569 20.8363C6.04478 20.6967 6.31969 20.6532 6.58069 20.7151C6.78004 20.7637 6.96164 20.8675 7.10459 21.0147C7.24753 21.1618 7.34602 21.3464 7.38872 21.5471C7.42001 21.7083 7.413 21.8747 7.36825 22.0328C7.3235 22.1908 7.24225 22.3362 7.13106 22.4571C7.04326 22.5546 6.99467 22.6812 6.99467 22.8125C6.99467 22.9438 7.04326 23.0704 7.13106 23.1679C7.30761 23.3611 7.40574 23.6133 7.40625 23.875C7.40625 24.0159 7.35028 24.151 7.25065 24.2507C7.15102 24.3503 7.0159 24.4062 6.875 24.4062ZM8.39119 22.2812C8.4735 21.9782 8.48729 21.6606 8.43156 21.3516C8.35128 20.9479 8.15699 20.5758 7.87169 20.2792C7.5864 19.9826 7.22208 19.774 6.82187 19.6781C6.39638 19.5772 5.94979 19.6144 5.54688 19.7844C5.15378 19.6197 4.71942 19.5806 4.30322 19.6723C3.8549 19.7772 3.45255 20.0243 3.15625 20.3767V9.53125H9.357L9.21728 9.63378C9.14992 9.68314 9.09514 9.74767 9.05738 9.82216C9.01963 9.89665 8.99997 9.97899 9 10.0625V22.2812H8.39119ZM10.0625 24.4062V12.7188H11.125V24.4062H10.0625ZM20.6875 22.2812H19.625V18.0312C19.625 17.4677 19.4011 16.9272 19.0026 16.5286C18.6041 16.1301 18.0636 15.9062 17.5 15.9062C16.9364 15.9062 16.3959 16.1301 15.9974 16.5286C15.5989 16.9272 15.375 17.4677 15.375 18.0312V22.2812H14.3125V18.0312C14.3125 17.1859 14.6483 16.3751 15.2461 15.7773C15.8439 15.1796 16.6546 14.8438 17.5 14.8438C18.3454 14.8438 19.1561 15.1796 19.7539 15.7773C20.3517 16.3751 20.6875 17.1859 20.6875 18.0312V22.2812ZM18.5625 22.2812H16.4375V18.0312C16.4375 17.7495 16.5494 17.4792 16.7487 17.2799C16.948 17.0807 17.2182 16.9688 17.5 16.9688C17.7818 16.9688 18.052 17.0807 18.2513 17.2799C18.4506 17.4792 18.5625 17.7495 18.5625 18.0312V22.2812ZM32.7931 32.9062H27.5061C26.8054 30.8344 22.0215 29.7188 17.5 29.7188C12.9785 29.7188 8.19462 30.8344 7.49391 32.9062H2.20691C3.09516 30.7993 9.1275 28.6562 17.5 28.6562C25.8725 28.6562 31.9048 30.7993 32.7931 32.9062ZM21.5598 27.7531C20.2965 27.6506 18.945 27.5938 17.5 27.5938C16.055 27.5938 14.7035 27.6506 13.4402 27.7531L15.2034 23.3438H19.7966L21.5598 27.7531ZM21.75 22.2812V18.0312C21.75 16.9041 21.3022 15.8231 20.5052 15.026C19.7082 14.229 18.6272 13.7812 17.5 13.7812C16.3728 13.7812 15.2918 14.229 14.4948 15.026C13.6978 15.8231 13.25 16.9041 13.25 18.0312V22.2812H12.1875V12.7188H22.8125V22.2812H21.75ZM23.875 24.4062V12.7188H24.9375V24.4062H23.875ZM32.375 24.4062H28.125C27.9841 24.4062 27.849 24.3503 27.7493 24.2507C27.6497 24.151 27.5938 24.0159 27.5938 23.875C27.5947 23.6131 27.6934 23.3609 27.8705 23.1679C27.9583 23.0704 28.0069 22.9438 28.0069 22.8125C28.0069 22.6812 27.9583 22.5546 27.8705 22.4571C27.7593 22.3362 27.6781 22.1908 27.6333 22.0328C27.5886 21.8747 27.5816 21.7083 27.6129 21.5471C27.6556 21.3464 27.7541 21.1618 27.897 21.0147C28.04 20.8675 28.2216 20.7637 28.4209 20.7151C28.498 20.6969 28.577 20.6876 28.6562 20.6875C28.8435 20.6885 29.027 20.7399 29.1875 20.8363C29.2686 20.8835 29.3608 20.9083 29.4547 20.9083C29.5486 20.9083 29.6408 20.8835 29.7219 20.8363C29.9465 20.6994 30.2153 20.6547 30.4721 20.7114C30.624 20.7502 30.7661 20.8207 30.8889 20.9183C31.0117 21.0159 31.1124 21.1384 31.1845 21.2777C31.2577 21.4025 31.3013 21.5425 31.3119 21.6868C31.3225 21.8312 31.2998 21.976 31.2456 22.1102C31.2155 22.193 31.2065 22.282 31.2194 22.3692C31.2323 22.4564 31.2666 22.539 31.3194 22.6096C31.3712 22.6811 31.4405 22.7383 31.5207 22.7754C31.6009 22.8126 31.6892 22.8287 31.7773 22.8221C31.7906 22.8221 31.8305 22.8146 31.8453 22.813C32.1271 22.813 32.3974 22.925 32.5966 23.1242C32.7959 23.3235 32.9078 23.5937 32.9078 23.8755C32.9078 23.9454 32.8939 24.0145 32.8671 24.079C32.8403 24.1435 32.801 24.2021 32.7515 24.2514C32.702 24.3007 32.6433 24.3398 32.5787 24.3663C32.5141 24.3929 32.4449 24.4065 32.375 24.4062ZM31.8438 20.3767C31.5473 20.0247 31.145 19.778 30.6968 19.6733C30.2807 19.5808 29.8462 19.6196 29.4531 19.7844C29.0503 19.6141 28.6036 19.5769 28.1781 19.6781C27.7779 19.774 27.4136 19.9826 27.1283 20.2792C26.843 20.5758 26.6487 20.9479 26.5684 21.3516C26.5127 21.6606 26.5265 21.9782 26.6088 22.2812H26V10.0625C26 9.97899 25.9804 9.89665 25.9426 9.82216C25.9049 9.74767 25.8501 9.68314 25.7827 9.63378L25.643 9.53125H31.8438V20.3767Z" fill="#616161"/>
<path d="M5.8125 10.5938C5.38981 10.5938 4.98443 10.7617 4.68555 11.0605C4.38666 11.3594 4.21875 11.7648 4.21875 12.1875V15.375C4.21875 15.5159 4.27472 15.651 4.37435 15.7507C4.47398 15.8503 4.6091 15.9062 4.75 15.9062H6.875C7.0159 15.9062 7.15102 15.8503 7.25065 15.7507C7.35028 15.651 7.40625 15.5159 7.40625 15.375V12.1875C7.40625 11.7648 7.23834 11.3594 6.93945 11.0605C6.64057 10.7617 6.23519 10.5938 5.8125 10.5938ZM6.34375 14.8438H5.28125V12.1875C5.28125 12.0466 5.33722 11.9115 5.43685 11.8118C5.53648 11.7122 5.6716 11.6562 5.8125 11.6562C5.9534 11.6562 6.08852 11.7122 6.18815 11.8118C6.28778 11.9115 6.34375 12.0466 6.34375 12.1875V14.8438Z" fill="#616161"/>
<path d="M28.125 15.9062H30.25C30.3909 15.9062 30.526 15.8503 30.6257 15.7507C30.7253 15.651 30.7812 15.5159 30.7812 15.375V12.1875C30.7812 11.7648 30.6133 11.3594 30.3145 11.0605C30.0156 10.7617 29.6102 10.5938 29.1875 10.5938C28.7648 10.5938 28.3594 10.7617 28.0605 11.0605C27.7617 11.3594 27.5938 11.7648 27.5938 12.1875V15.375C27.5938 15.5159 27.6497 15.651 27.7493 15.7507C27.849 15.8503 27.9841 15.9062 28.125 15.9062ZM28.6562 12.1875C28.6562 12.0466 28.7122 11.9115 28.8118 11.8118C28.9115 11.7122 29.0466 11.6562 29.1875 11.6562C29.3284 11.6562 29.4635 11.7122 29.5632 11.8118C29.6628 11.9115 29.7188 12.0466 29.7188 12.1875V14.8438H28.6562V12.1875Z" fill="#616161"/>
</svg>
