<svg width="34" height="35" viewBox="0 0 34 35" fill="none" xmlns="http://www.w3.org/2000/svg">
<g clip-path="url(#clip0_15_54)">
<path fill-rule="evenodd" clip-rule="evenodd" d="M19.0227 21.3487L11.7311 31.1267C11.5433 31.3771 11.594 31.7322 11.8444 31.92C12.0947 32.1078 12.4499 32.0571 12.6377 31.8067L19.9311 22.0258C20.0525 21.8638 20.0784 21.6494 19.9989 21.4632C19.9193 21.277 19.7465 21.1475 19.5455 21.1232C19.3445 21.099 19.1459 21.1839 19.0245 21.3458L19.0227 21.3487Z" fill="#616161"/>
<path d="M1.23685 24.038L4.26162 25.0483C4.36315 25.0853 4.47032 25.1045 4.57836 25.105C4.75394 25.1043 4.92612 25.0565 5.07699 24.9667L15.424 18.7677C15.5551 19.1404 15.7136 19.503 15.8982 19.8522L14.085 22.2831C13.9333 22.4889 13.8684 22.7461 13.9043 22.9993L14.0539 24.0488L12.9291 24.382C12.5106 24.5035 12.2248 24.8892 12.2304 25.3249C12.2413 25.5619 12.2707 25.7978 12.3182 26.0303L12.3624 26.3137L11.2291 26.6485C10.7692 26.7883 10.48 27.2425 10.548 27.7184L10.671 28.5859L9.5819 28.9101C8.69574 29.1695 8.16404 30.0732 8.36757 30.9738L8.9909 33.7368C9.08467 34.1787 9.473 34.4961 9.92474 34.5C9.95024 34.5 9.97634 34.5 10.0024 34.4966L13.1813 34.279C13.4702 34.2666 13.738 34.1238 13.9094 33.8909L21.3517 23.9122C24.1646 24.48 27.0646 23.4818 28.9321 21.3031C30.7996 19.1243 31.3425 16.1058 30.3512 13.4128C32.7523 11.7703 33.9029 8.82527 33.2514 5.99002C32.6 3.15477 30.2791 1.00747 27.4019 0.577836C24.5246 0.148202 21.6777 1.52383 20.2263 4.04505C17.9761 4.01749 15.8207 4.95007 14.3003 6.6091C12.7798 8.26814 12.0383 10.4965 12.2615 12.7357L9.6481 14.2985C9.43475 14.4326 9.28149 14.644 9.22026 14.8884L8.96129 15.914L7.7951 15.7939C7.36062 15.7452 6.94726 15.993 6.78536 16.3991C6.70508 16.6268 6.64253 16.8604 6.59837 17.0978L6.53376 17.3692L5.36817 17.2513C4.88495 17.1944 4.43427 17.5044 4.31481 17.9761L4.10119 18.826L2.97245 18.7127C2.5974 18.6706 2.21897 18.7535 1.89585 18.9484C1.45041 19.2087 1.14382 19.6538 1.05949 20.1627L0.586361 22.95C0.493727 23.4256 0.774151 23.8945 1.23685 24.038ZM28.7623 19.6C27.2386 22.2001 24.1769 23.4765 21.2576 22.7285C21.0354 22.6719 20.801 22.755 20.6638 22.9388L13.0475 33.1531L10.0675 33.3571L9.4714 30.7289C9.43183 30.5514 9.47087 30.3655 9.57851 30.219C9.65926 30.1125 9.77208 30.0348 9.90037 29.9974L11.1255 29.633C11.5892 29.4984 11.8817 29.0412 11.8094 28.5638L11.6864 27.6962L12.8198 27.3613C13.2842 27.2264 13.5767 26.7679 13.5031 26.2898L13.4357 25.8523C13.4096 25.6868 13.3847 25.5344 13.3711 25.4318L14.5146 25.0936C14.9765 24.9574 15.2669 24.501 15.1946 24.0249L15.0348 22.9029L17.0254 20.2334C17.1623 20.0501 17.1755 19.8024 17.0588 19.6055C15.3275 16.6924 16.0053 12.9492 18.6484 10.8282C21.2914 8.70727 25.0926 8.85615 27.5616 11.1772C28.1072 11.6869 28.5636 12.2842 28.9119 12.9446C28.2597 13.2567 27.5554 13.4457 26.8346 13.5022C26.6584 12.443 25.761 11.6541 24.6879 11.6152C23.6148 11.5763 22.6627 12.298 22.4101 13.3417C22.1576 14.3853 22.6746 15.4625 23.6468 15.9184C24.6191 16.3743 25.7778 16.0829 26.4187 15.2214C26.547 15.0445 26.6484 14.8495 26.7196 14.6428C27.6329 14.598 28.5287 14.3752 29.3567 13.9872C29.9826 15.8559 29.7657 17.9041 28.7623 19.6ZM23.8892 12.989C24.0463 12.8595 24.2357 12.775 24.4371 12.7448C24.4921 12.7369 24.5476 12.7329 24.6031 12.7329C25.0817 12.7343 25.5078 13.0361 25.6678 13.4871C25.0525 13.4164 24.4523 13.2482 23.8897 12.989H23.8892ZM25.4536 14.6051C25.1685 14.9384 24.7158 15.0759 24.2934 14.9574C23.871 14.8389 23.5559 14.4861 23.4856 14.0531C24.1112 14.3326 24.7745 14.5185 25.4542 14.605L25.4536 14.6051ZM26.3575 1.63452C28.9271 1.6308 31.2079 3.27961 32.01 5.72089C32.812 8.16216 31.9536 10.8424 29.8826 12.3634C29.48 11.6116 28.9569 10.9309 28.3339 10.3484C28.1639 10.1914 27.9894 10.0492 27.8114 9.90865C27.7013 9.48652 27.5557 9.07442 27.3762 8.67679C26.446 6.61568 24.6733 5.05499 22.511 4.39354C22.1765 4.29294 21.8358 4.21438 21.491 4.1584C22.6025 2.57141 24.4201 1.62874 26.3575 1.63452ZM2.18205 20.3514C2.2114 20.1706 2.32037 20.0125 2.47894 19.9208C2.59196 19.8518 2.72477 19.8225 2.85631 19.8375L4.13067 19.9678C4.60984 20.0226 5.05415 19.7103 5.16478 19.2409L5.379 18.3909L6.55707 18.5121C7.03823 18.5574 7.48028 18.2443 7.59742 17.7755L7.69716 17.3568C7.7368 17.1908 7.77193 17.036 7.79856 16.9335L8.98513 17.0554C9.46377 17.1076 9.90701 16.7971 10.0215 16.3295L10.3014 15.2245L13.1567 13.5178C13.3528 13.4007 13.4593 13.1772 13.427 12.9512C12.942 9.64894 14.9276 6.48347 18.1117 5.48263C21.2959 4.48179 24.7354 5.94208 26.2269 8.928C24.9686 8.3449 23.5781 8.10658 22.1974 8.23726C19.9648 8.4374 17.9211 9.57271 16.5715 11.3626C15.222 13.1523 14.6926 15.4296 15.1143 17.6312L4.56137 23.9536L1.73096 23.0084L2.18205 20.3514Z" fill="#616161"/>
<path fill-rule="evenodd" clip-rule="evenodd" d="M13.7615 17.1203C14.0257 16.9577 14.1101 16.6129 13.9508 16.3468C13.7915 16.0806 13.4478 15.992 13.1796 16.148L4.11717 21.5804C3.94074 21.6831 3.83316 21.8727 3.83549 22.0768C3.83781 22.2809 3.94983 22.468 4.12859 22.5665C4.30735 22.6651 4.52529 22.6598 4.69914 22.5528L13.7615 17.1203Z" fill="#616161"/>
</g>
<defs>
<clipPath id="clip0_15_54">
<rect width="34" height="34" fill="white" transform="translate(0 0.5)"/>
</clipPath>
</defs>
</svg>
