<svg width="34" height="35" viewBox="0 0 34 35" fill="none" xmlns="http://www.w3.org/2000/svg">
<path d="M15.6028 29.7188H14.6784C14.1674 29.7173 13.6777 29.5137 13.3164 29.1524C12.955 28.791 12.7514 28.3013 12.75 27.7903V22.0847C12.7514 21.5737 12.955 21.084 13.3164 20.7226C13.6777 20.3613 14.1674 20.1577 14.6784 20.1562H15.6028C15.7586 20.1573 15.9138 20.177 16.065 20.2147C16.484 20.3162 16.8566 20.5559 17.1226 20.8952C17.3887 21.2345 17.5326 21.6535 17.5312 22.0847V27.7903C17.5298 28.3013 17.3262 28.791 16.9649 29.1524C16.6035 29.5137 16.1138 29.7173 15.6028 29.7188ZM14.6784 21.2188C14.5647 21.2188 14.4521 21.2411 14.3471 21.2847C14.242 21.3282 14.1465 21.392 14.0661 21.4724C13.9857 21.5528 13.9219 21.6482 13.8784 21.7533C13.8349 21.8584 13.8125 21.971 13.8125 22.0847V27.7903C13.8125 28.02 13.9037 28.2402 14.0661 28.4026C14.2285 28.565 14.4488 28.6562 14.6784 28.6562H15.6028C15.8325 28.6562 16.0527 28.565 16.2151 28.4026C16.3775 28.2402 16.4688 28.02 16.4688 27.7903V22.0847C16.4684 21.8913 16.4034 21.7036 16.284 21.5515C16.1646 21.3994 15.9978 21.2916 15.81 21.2453C15.7411 21.2378 15.6717 21.2378 15.6028 21.2453L14.6784 21.2188Z" fill="#616161"/>
<path d="M30.4778 29.7188H29.5534C29.0424 29.7173 28.5527 29.5137 28.1914 29.1524C27.83 28.791 27.6264 28.3013 27.625 27.7903V22.0847C27.6236 21.6535 27.7676 21.2345 28.0336 20.8952C28.2996 20.5559 28.6722 20.3162 29.0913 20.2147C29.2425 20.177 29.3976 20.1573 29.5534 20.1562H30.4778C30.9888 20.1577 31.4785 20.3613 31.8399 20.7226C32.2012 21.084 32.4049 21.5737 32.4063 22.0847V27.7903C32.4049 28.3013 32.2012 28.791 31.8399 29.1524C31.4785 29.5137 30.9888 29.7173 30.4778 29.7188ZM29.5534 21.2188C29.4846 21.2113 29.4151 21.2113 29.3463 21.2188C29.154 21.266 28.9838 21.3778 28.8639 21.5353C28.744 21.6929 28.6818 21.8868 28.6875 22.0847V27.7903C28.6875 28.02 28.7787 28.2402 28.9411 28.4026C29.1035 28.565 29.3238 28.6562 29.5534 28.6562H30.4778C30.7075 28.6562 30.9277 28.565 31.0901 28.4026C31.2525 28.2402 31.3438 28.02 31.3438 27.7903V22.0847C31.3438 21.971 31.3214 21.8584 31.2778 21.7533C31.2343 21.6482 31.1705 21.5528 31.0901 21.4724C31.0097 21.392 30.9143 21.3282 30.8092 21.2847C30.7041 21.2411 30.5915 21.2188 30.4778 21.2188H29.5534Z" fill="#616161"/>
<path d="M11.6875 27.0625H1.59375V20.6875H11.6875V27.0625ZM2.65625 26H10.625V21.75H2.65625V26Z" fill="#616161"/>
<path d="M10.625 26H11.6875V29.7188H10.625V26Z" fill="#616161"/>
<path d="M1.59375 26H2.65625V29.7188H1.59375V26Z" fill="#616161"/>
<path d="M27.0938 29.7188H18.0625C17.6398 29.7188 17.2344 29.5508 16.9355 29.252C16.6367 28.9531 16.4688 28.5477 16.4688 28.125V24.9375H28.6875V28.125C28.6875 28.5477 28.5196 28.9531 28.2207 29.252C27.9218 29.5508 27.5164 29.7188 27.0938 29.7188ZM17.5312 26V28.125C17.5312 28.2659 17.5872 28.401 17.6868 28.5007C17.7865 28.6003 17.9216 28.6562 18.0625 28.6562H27.0938C27.2346 28.6562 27.3698 28.6003 27.4694 28.5007C27.569 28.401 27.625 28.2659 27.625 28.125V26H17.5312Z" fill="#616161"/>
<path d="M28.6875 26H16.4688V24.4062C16.4688 23.7018 16.7486 23.0261 17.2467 22.528C17.7449 22.0299 18.4205 21.75 19.125 21.75H26.0312C26.7357 21.75 27.4114 22.0299 27.9095 22.528C28.4076 23.0261 28.6875 23.7018 28.6875 24.4062V26ZM17.5312 24.9375H27.625V24.4062C27.625 23.9836 27.4571 23.5782 27.1582 23.2793C26.8593 22.9804 26.4539 22.8125 26.0312 22.8125H19.125C18.7023 22.8125 18.2969 22.9804 17.998 23.2793C17.6992 23.5782 17.5312 23.9836 17.5312 24.4062V24.9375Z" fill="#616161"/>
<path d="M28.6875 24.4062H27.625C27.625 23.9836 27.4571 23.5782 27.1582 23.2793C26.8593 22.9804 26.4539 22.8125 26.0312 22.8125H19.125C18.7023 22.8125 18.2969 22.9804 17.998 23.2793C17.6992 23.5782 17.5312 23.9836 17.5312 24.4062H16.4688V22.0847C16.4684 21.8913 16.4034 21.7036 16.284 21.5515C16.1646 21.3994 15.9978 21.2916 15.81 21.2453L15.4062 21.1497V16.9688C15.4062 15.9825 15.798 15.0366 16.4954 14.3392C17.1928 13.6418 18.1387 13.25 19.125 13.25H26.0312C27.0175 13.25 27.9634 13.6418 28.6608 14.3392C29.3582 15.0366 29.75 15.9825 29.75 16.9688V21.1497L29.3463 21.2453C29.1585 21.2916 28.9916 21.3994 28.8722 21.5515C28.7528 21.7036 28.6878 21.8913 28.6875 22.0847V24.4062ZM19.125 21.75H26.0312C26.606 21.75 27.1652 21.9364 27.625 22.2812V22.0847C27.6235 21.7271 27.7223 21.3763 27.9101 21.0721C28.0979 20.7679 28.3672 20.5223 28.6875 20.3634V16.9688C28.6875 16.2643 28.4076 15.5886 27.9095 15.0905C27.4114 14.5924 26.7357 14.3125 26.0312 14.3125H19.125C18.4205 14.3125 17.7449 14.5924 17.2467 15.0905C16.7486 15.5886 16.4688 16.2643 16.4688 16.9688V20.3634C16.789 20.5223 17.0584 20.7679 17.2462 21.0721C17.434 21.3763 17.5327 21.7271 17.5312 22.0847V22.2812C17.991 21.9364 18.5503 21.75 19.125 21.75Z" fill="#616161"/>
<path d="M5.3125 23.3438H7.96875V24.4062H5.3125V23.3438Z" fill="#616161"/>
<path d="M8.36721 21.75H4.91408L3.54346 16.9688H9.73783L8.36721 21.75ZM5.71096 20.6875H7.57033L8.32471 18.0312H4.95658L5.71096 20.6875Z" fill="#616161"/>
<path d="M6.64062 18.0313C6.50498 18.0303 6.36975 18.0161 6.23687 17.9888C5.24113 17.8192 4.33677 17.3048 3.68215 16.5356C3.02753 15.7663 2.66436 14.7913 2.65625 13.7813V13.2501H3.1875C4.17602 13.2449 5.13495 13.5871 5.89688 14.2169L6.09344 14.371V14.6207C6.09015 15.2674 6.28074 15.9002 6.64062 16.4376C7.00672 15.904 7.2047 15.2731 7.20906 14.626V14.3763L7.40562 14.2222C8.1612 13.5952 9.11187 13.2514 10.0938 13.2501H10.625V13.7813C10.6288 14.8092 10.2627 15.8041 9.59362 16.5844C8.92452 17.3647 7.99706 17.8783 6.98063 18.0313C6.86757 18.0426 6.75368 18.0426 6.64062 18.0313ZM8.26094 14.8704C8.22191 15.5064 8.04034 16.1255 7.72969 16.6819C8.19868 16.4671 8.60854 16.1418 8.92407 15.7337C9.23961 15.3256 9.4514 14.8471 9.54125 14.3391C9.07958 14.4195 8.64197 14.6029 8.26094 14.8757V14.8704ZM3.75063 14.3391C3.84673 14.8447 4.0609 15.3204 4.37571 15.7276C4.69052 16.1347 5.09705 16.4617 5.56219 16.6819C5.25303 16.1249 5.07157 15.5061 5.03094 14.8704C4.64895 14.6014 4.21141 14.4216 3.75063 14.3444V14.3391Z" fill="#616161"/>
<path d="M6.64049 17.9835L6.26331 17.6116C6.17299 17.516 6.08268 17.4204 5.99768 17.3194C5.31595 16.4962 4.96544 15.4485 5.01455 14.3807C5.06367 13.313 5.50888 12.3019 6.26331 11.5447L6.64049 11.1729L7.01768 11.5447C7.41732 11.942 7.73398 12.4148 7.94922 12.9355C8.16446 13.4563 8.27399 14.0147 8.27143 14.5782V14.6047C8.26842 15.5904 7.92287 16.5445 7.29393 17.3035C7.19831 17.4204 7.10799 17.516 7.01768 17.6116L6.64049 17.9835ZM6.64049 12.7454C6.27045 13.2849 6.0724 13.9239 6.0724 14.5782C6.0724 15.2324 6.27045 15.8714 6.64049 16.411C7.00659 15.8774 7.20457 15.2465 7.20893 14.5994C7.21661 13.9374 7.01794 13.2893 6.64049 12.7454Z" fill="#616161"/>
<path d="M12.75 11.125H13.8125V23.875H12.75V11.125Z" fill="#616161"/>
<path d="M17.5843 12.1875H8.97803L9.61022 5.28125H16.9521L17.5843 12.1875ZM10.1468 11.125H16.4155L15.9852 6.34375H10.5771L10.1468 11.125Z" fill="#616161"/>
</svg>
