<svg width="35" height="35" viewBox="0 0 35 35" fill="none" xmlns="http://www.w3.org/2000/svg">
<g clip-path="url(#clip0_15_347)">
<path d="M2.24192 18.2011C2.44039 18.3095 2.64921 18.3977 2.86525 18.4646C2.59982 19.443 2.8784 20.4887 3.59546 21.2054C4.31251 21.9221 5.35833 22.2002 6.33665 21.9343C6.73434 23.213 7.85286 24.1339 9.18415 24.2786C9.37502 24.8217 9.70179 25.3069 10.1333 25.6879V29.4001C10.1333 31.0174 9.81315 32.7242 8.96145 33.2194C8.85832 32.0782 8.47582 29.8806 7.04782 28.9286C6.78744 28.7549 6.43555 28.8252 6.26185 29.0856C6.08816 29.346 6.15844 29.6979 6.41882 29.8716C7.04281 30.4014 7.46162 31.133 7.60259 31.9393C7.04497 31.4478 6.34141 31.153 5.59999 31.1001C5.29089 31.1004 5.03978 31.3497 5.03729 31.6588C5.03501 31.9694 5.28157 32.2248 5.59205 32.2334C6.3331 32.3339 6.99587 32.7463 7.41332 33.3668H4.46665C4.15369 33.3668 3.89999 33.6205 3.89999 33.9334C3.89999 34.2464 4.15369 34.5001 4.46665 34.5001H33.9333C34.2463 34.5001 34.5 34.2464 34.5 33.9334C34.5 33.6205 34.2463 33.3668 33.9333 33.3668H32.8V9.00011C33.7389 9.00011 34.5 8.23899 34.5 7.30011V7.07627C34.5008 6.74086 34.4022 6.41273 34.2167 6.13334L31.3437 1.82667C31.0286 1.35199 30.4967 1.06669 29.927 1.06677H15.8C15.6109 1.06681 15.4342 1.16118 15.3291 1.31837L15.154 1.58131C14.2129 0.914945 12.9594 0.894023 11.9965 1.52861C11.2765 0.787851 10.2583 0.415355 9.23028 0.516605C8.20224 0.617854 7.27628 1.18182 6.71462 2.04881C6.52936 2.33669 6.38928 2.65125 6.29925 2.98154C4.55717 2.38649 2.63489 3.07217 1.66267 4.63542C0.690443 6.19866 0.925428 8.226 2.22945 9.52541C1.84214 10.0232 1.63231 10.6361 1.63332 11.2668C1.63495 11.6883 1.7318 12.104 1.91665 12.4828C0.971908 13.1588 0.439181 14.2715 0.505039 15.4313C0.570896 16.5911 1.22673 17.6364 2.24192 18.2011ZM10.4048 33.3668C10.9658 32.4975 11.2667 31.1505 11.2667 29.4001V26.3707C11.9996 26.6321 12.8004 26.6321 13.5333 26.3707V29.4001C13.5333 31.1505 13.8342 32.4975 14.3952 33.3668H10.4048ZM31.6667 22.6001H24.8667V21.4668H31.6667V22.6001ZM23.7333 31.1001H20.3333V29.4001H23.7333V31.1001ZM23.7333 28.2668H20.3333V26.5668H23.7333V28.2668ZM23.7333 25.4334H20.3333V23.7334H23.7333V25.4334ZM20.3333 32.2334H23.7333V33.3668H20.3333V32.2334ZM23.7333 22.6001H20.3333V16.3668C20.3333 15.4279 21.0944 14.6668 22.0333 14.6668C22.9722 14.6668 23.7333 15.4279 23.7333 16.3668V22.6001ZM19.2 22.6001H14.6667V22.1394C14.9769 21.9599 15.2572 21.7329 15.4974 21.4668H19.2V22.6001ZM17.0093 33.3668C17.0708 32.8802 17.3428 32.4451 17.7533 32.1768C18.0334 32.0369 18.147 31.6964 18.0072 31.4163C17.8673 31.1362 17.5268 31.0225 17.2467 31.1624C16.4911 31.6056 15.9842 32.3747 15.8748 33.2438C14.9953 32.7735 14.6667 31.0434 14.6667 29.4001V23.7334H19.2V33.3668H17.0093ZM24.8667 33.3668V23.7334H29.4V33.3668H24.8667ZM30.5333 33.3668V23.7334H31.6667V33.3668H30.5333ZM31.6667 20.3334H24.8667V16.3668C24.8667 14.802 23.5981 13.5334 22.0333 13.5334C20.4685 13.5334 19.2 14.802 19.2 16.3668V20.3334H16.1632C16.2953 19.9701 16.3641 19.5867 16.3667 19.2001C16.3663 19.0523 16.3564 18.9047 16.3372 18.7581C17.2688 18.2345 17.8988 17.3021 18.037 16.2423C18.1752 15.1826 17.8054 14.1198 17.0393 13.3748C17.3404 12.9172 17.5006 12.3812 17.5 11.8334C17.491 10.681 16.7891 9.64726 15.7212 9.21374C15.7354 9.14347 15.7433 9.07151 15.7541 9.00011H31.6667V20.3334ZM29.927 2.20011C30.1164 2.20008 30.2933 2.2947 30.3985 2.45227L33.2715 6.76177C33.3332 6.85505 33.3663 6.96439 33.3667 7.07627V7.30011C33.3667 7.61307 33.1129 7.86677 32.8 7.86677H15.7586C15.5981 6.78671 15.0014 5.81984 14.1079 5.19211L16.1026 2.20011H29.927ZM6.10319 17.236C6.02409 17.1082 5.89742 17.017 5.75108 16.9826C5.60473 16.9481 5.4507 16.9733 5.32289 17.0524C4.57496 17.5715 3.60079 17.6326 2.79385 17.2111C2.0775 16.8106 1.6336 16.0542 1.63332 15.2334C1.63007 14.4958 1.99041 13.804 2.59665 13.3838C2.93014 13.6812 3.3253 13.901 3.75379 14.0276C4.05392 14.1163 4.36915 13.9449 4.45787 13.6448C4.5466 13.3447 4.37522 13.0294 4.07509 12.9407C3.31393 12.7377 2.77981 12.0544 2.76665 11.2668C2.76398 10.4879 3.29526 9.80854 4.05185 9.62344C4.24864 9.57536 4.40482 9.42595 4.46157 9.23149C4.51832 9.03703 4.46702 8.82706 4.32699 8.68069C4.18695 8.53431 3.97947 8.47376 3.78269 8.52184C3.5433 8.5834 3.31313 8.67638 3.09815 8.79837C2.08734 7.85497 1.90661 6.31911 2.67081 5.16684C3.43502 4.01456 4.9202 3.58356 6.18252 4.14774C6.21557 4.57758 6.32294 4.99843 6.49985 5.39157C6.5908 5.59628 6.79379 5.7282 7.01779 5.72817C7.09706 5.7278 7.17539 5.71102 7.24785 5.67887C7.38517 5.61766 7.49254 5.50439 7.54631 5.364C7.60009 5.2236 7.59587 5.06759 7.53459 4.93031C7.18573 4.20384 7.23519 3.349 7.66549 2.66761C8.04003 2.08935 8.65762 1.71325 9.34327 1.64585C10.0289 1.57845 10.7079 1.82711 11.1879 2.32137C11.0052 2.59554 10.8722 2.89977 10.7952 3.22011C10.7244 3.52422 10.9129 3.82831 11.2168 3.90011C11.2597 3.91022 11.3036 3.91535 11.3477 3.91541C11.6104 3.91503 11.8383 3.7342 11.8985 3.47851C12.0796 2.72391 12.7573 2.19397 13.5333 2.20011C13.8897 2.2009 14.2367 2.31457 14.5244 2.52481L13.0857 4.68324C12.8025 4.58433 12.5089 4.51817 12.2107 4.48604C12.0092 4.46671 11.8126 4.55636 11.6951 4.72123C11.5776 4.8861 11.557 5.10114 11.641 5.28535C11.725 5.46955 11.9009 5.59494 12.1025 5.61427C12.4364 5.64444 12.7618 5.73608 13.0624 5.88457C14.0412 6.35686 14.6642 7.3467 14.6667 8.43344C14.6653 9.18125 14.3614 9.89669 13.824 10.4168C13.612 10.6378 13.6139 10.9873 13.8284 11.2059C14.0429 11.4245 14.3923 11.4332 14.6174 11.2254C14.9023 10.9462 15.1437 10.6259 15.3336 10.2751C15.9566 10.5437 16.3619 11.1551 16.3667 11.8334C16.3662 12.1495 16.2762 12.4589 16.1071 12.7259C15.8601 12.606 15.5991 12.5173 15.3302 12.4619C15.1303 12.421 14.9238 12.4908 14.7897 12.6446C14.6555 12.7984 14.6145 13.0124 14.6821 13.2049C14.7498 13.3975 14.9157 13.5387 15.1166 13.5748C16.2596 13.8067 17.0408 14.867 16.9238 16.0273C16.8068 17.1877 15.8295 18.0706 14.6633 18.0696C14.3503 18.0696 14.0966 18.3233 14.0966 18.6363C14.0966 18.9492 14.3503 19.2029 14.6633 19.2029C14.8521 19.2013 15.0405 19.1841 15.2265 19.1514C15.2265 19.1678 15.2299 19.1837 15.2299 19.2001C15.2278 20.1002 14.6966 20.9148 13.8739 21.2798C13.3942 21.4834 12.8602 21.5207 12.3569 21.3857C12.1619 21.331 11.9525 21.3845 11.8076 21.5261C11.6628 21.6677 11.6045 21.8758 11.6548 22.0721C11.7051 22.2683 11.8564 22.4227 12.0515 22.4771C12.3495 22.5597 12.6574 22.6011 12.9667 22.6001C13.1566 22.5988 13.3462 22.5817 13.5333 22.5491V25.1229C12.7473 25.5678 11.7738 25.5128 11.0428 24.9824C10.3083 24.4396 9.97967 23.5033 10.2138 22.6205C10.292 22.3172 10.1096 22.008 9.80635 21.9297C9.50309 21.8515 9.19383 22.0339 9.11559 22.3372C9.05444 22.5853 9.021 22.8394 9.01585 23.0948C7.84107 22.8057 7.10594 21.6385 7.35269 20.4541C7.39156 20.2554 7.32147 20.0511 7.16882 19.9181C7.01617 19.7851 6.80416 19.7436 6.61264 19.8093C6.42112 19.875 6.27919 20.0378 6.24032 20.2365C6.20693 20.4164 6.18798 20.5987 6.18365 20.7817C5.9979 20.8563 5.80012 20.8964 5.59999 20.9001C4.6611 20.9001 3.89999 20.139 3.89999 19.2001C3.90339 19.001 3.94294 18.8042 4.01672 18.6193C4.6924 18.5868 5.348 18.379 5.91902 18.0163C6.04697 17.9373 6.13827 17.8107 6.17281 17.6644C6.20735 17.518 6.18231 17.3639 6.10319 17.236Z" fill="#616161"/>
<path d="M9.56667 18.0667C9.87963 18.0667 10.1333 17.813 10.1333 17.5C10.1333 17.1871 10.387 16.9334 10.7 16.9334C11.013 16.9334 11.2667 16.6797 11.2667 16.3667C11.2667 16.0538 11.013 15.8 10.7 15.8C9.76112 15.8 9 16.5612 9 17.5C9 17.813 9.25371 18.0667 9.56667 18.0667Z" fill="#616161"/>
<path d="M7.3 11.2667C7.61297 11.2667 7.86667 11.013 7.86667 10.7C7.86667 10.387 8.12038 10.1333 8.43334 10.1333C8.7463 10.1333 9 9.87963 9 9.56667C9 9.25371 8.7463 9 8.43334 9C7.49445 9 6.73334 9.76112 6.73334 10.7C6.73334 11.013 6.98704 11.2667 7.3 11.2667Z" fill="#616161"/>
<path d="M11.8333 12.4002C12.1463 12.4002 12.4 12.6539 12.4 12.9668C12.4 13.2798 12.6537 13.5335 12.9667 13.5335C13.2796 13.5335 13.5333 13.2798 13.5333 12.9668C13.5333 12.028 12.7722 11.2668 11.8333 11.2668C11.5204 11.2668 11.2667 11.5206 11.2667 11.8335C11.2667 12.1465 11.5204 12.4002 11.8333 12.4002Z" fill="#616161"/>
<path d="M27.1333 14.6669H29.4C30.0259 14.6669 30.5333 14.1595 30.5333 13.5335V11.2669C30.5333 10.641 30.0259 10.1335 29.4 10.1335H27.1333C26.5074 10.1335 26 10.641 26 11.2669V13.5335C26 14.1595 26.5074 14.6669 27.1333 14.6669ZM27.1333 11.2669H29.4V13.5335H27.1333V11.2669Z" fill="#616161"/>
<path d="M16.9333 6.73343H30.5333C30.8463 6.73343 31.1 6.47973 31.1 6.16676C31.1 5.8538 30.8463 5.6001 30.5333 5.6001H16.9333C16.6203 5.6001 16.3666 5.8538 16.3666 6.16676C16.3666 6.47973 16.6203 6.73343 16.9333 6.73343Z" fill="#616161"/>
<path d="M2.2 34.5C2.51296 34.5 2.76667 34.2463 2.76667 33.9334C2.76667 33.6204 2.51296 33.3667 2.2 33.3667H1.06667C0.753705 33.3667 0.5 33.6204 0.5 33.9334C0.5 34.2463 0.753705 34.5 1.06667 34.5H2.2Z" fill="#616161"/>
</g>
<defs>
<clipPath id="clip0_15_347">
<rect width="34" height="34" fill="white" transform="translate(0.5 0.5)"/>
</clipPath>
</defs>
</svg>
