<svg width="34" height="35" viewBox="0 0 34 35" fill="none" xmlns="http://www.w3.org/2000/svg">
<g clip-path="url(#clip0_15_40)">
<path d="M22.9694 9.19792C22.5734 9.19792 22.1469 9.27097 21.8072 9.38998C21.0886 7.73147 19.8383 6.59908 18.0856 6.02236C15.6736 5.22874 13.8508 5.57056 12.6861 6.05125C14.4372 4.1876 16.6523 4.24046 17.9942 4.5091C18.3318 4.57657 18.6671 4.44627 18.87 4.169C19.0735 3.89087 19.096 3.53032 18.929 3.22821C18.423 2.31299 17.514 1.13424 16.0574 0.716443C14.909 0.387239 13.6407 0.601219 12.2876 1.35287C10.6446 2.2657 9.80958 3.73513 9.87288 5.60224C9.8754 5.67622 9.87952 5.74914 9.88463 5.8214C9.33806 5.39815 8.60972 5.00134 7.64661 4.75157C7.3801 4.68243 7.10848 4.84242 7.03941 5.10866C6.97034 5.37498 7.13019 5.6468 7.39651 5.71587C8.60773 6.02993 9.36522 6.60679 9.82114 7.10859C8.11927 6.89322 6.37688 7.48907 4.62547 8.8897C3.02215 10.1718 1.76676 11.8705 1.07329 12.923C0.815148 10.8032 1.18008 9.08767 2.15986 7.82033C2.92406 6.83186 3.80402 6.49209 3.81046 6.48963C3.97583 6.42927 4.09709 6.28602 4.1293 6.11288C4.16151 5.93974 4.09995 5.76242 3.96732 5.6466L3.90384 5.59115C4.40518 5.52407 4.89211 5.48834 5.35341 5.48476C5.62855 5.48263 5.84984 5.25789 5.84765 4.98281C5.84552 4.70767 5.62138 4.48419 5.3457 4.48858C4.79216 4.49283 4.20707 4.53938 3.60684 4.62678C3.24476 4.67951 2.95561 4.93022 2.8522 5.2812C2.79456 5.47712 2.80239 5.67815 2.86861 5.85925C2.46681 6.10498 1.92084 6.51673 1.41305 7.15834C0.564376 8.23043 -0.346663 10.1834 0.132566 13.3989C0.186625 13.7619 0.453933 14.0459 0.813354 14.1222C0.875649 14.1354 0.937877 14.1419 0.999308 14.1419C1.29404 14.1419 1.56972 13.9937 1.73356 13.7362C2.34143 12.7801 3.60638 10.9803 5.24761 9.66778C6.60202 8.58473 7.93172 8.05038 9.21819 8.06838C8.54663 8.42767 7.71947 8.95378 6.88234 9.69454C5.12309 11.2514 2.99034 14.0891 2.82059 18.7668C2.80883 19.0912 2.97646 19.3933 3.25798 19.5553C3.39353 19.6333 3.54388 19.6721 3.69397 19.6721C3.85562 19.6721 4.01693 19.6271 4.15919 19.5374C4.83493 19.1115 6.07424 18.1639 7.26753 16.3839C7.40972 16.5518 7.60916 16.6593 7.83343 16.6851C8.11043 16.7166 8.37867 16.6183 8.56941 16.4149C8.77402 16.1965 9.06145 15.8667 9.37645 15.4377C9.06278 20.1317 9.05966 27.4346 11.0947 34.0809C11.1603 34.2953 11.3576 34.4333 11.5708 34.4333C11.6191 34.4333 11.6682 34.4263 11.7167 34.4113C11.9798 34.3309 12.1277 34.0523 12.0472 33.7893C11.799 32.9788 11.5821 32.1579 11.3926 31.333H11.9305C12.2056 31.333 12.4285 31.11 12.4285 30.8349C12.4285 30.5597 12.2056 30.3368 11.9305 30.3368H11.1777C10.821 28.5763 10.5838 26.8085 10.4347 25.0934H11.4404C11.7155 25.0934 11.9385 24.8704 11.9385 24.5953C11.9385 24.3201 11.7155 24.0972 11.4404 24.0972H10.3573C10.3111 23.4214 10.2777 22.756 10.2555 22.1046H10.9119C11.187 22.1046 11.41 21.8817 11.41 21.6065C11.41 21.3314 11.187 21.1084 10.9119 21.1084H10.2296C10.176 18.1039 10.3465 15.3766 10.5277 13.496C10.6544 13.2234 10.7747 12.9361 10.8841 12.634C11.0606 13.1233 11.2655 13.5754 11.4828 13.9875C11.5385 15.4538 11.6342 16.8534 11.7623 18.1866H11.2481C10.9729 18.1866 10.75 18.4096 10.75 18.6847C10.75 18.9599 10.9729 19.1828 11.2481 19.1828H11.8655C12.1774 21.9978 12.632 24.5016 13.1524 26.6951H11.9304C11.6552 26.6951 11.4323 26.9181 11.4323 27.1932C11.4323 27.4684 11.6552 27.6913 11.9304 27.6913H13.3984C14.0743 30.3231 14.8344 32.4674 15.5256 34.1267C15.6052 34.318 15.7904 34.4334 15.9856 34.4334C16.0494 34.4334 16.1143 34.421 16.1769 34.3949C16.4309 34.2892 16.5509 33.9976 16.4451 33.7436C14.9311 30.109 13.0798 24.0967 12.563 15.6599C12.8019 15.9674 13.0237 16.2202 13.2061 16.4149C13.3968 16.6183 13.665 16.7169 13.942 16.6851C14.1663 16.6594 14.3657 16.552 14.5079 16.3841C14.942 17.0323 15.416 17.6202 15.9228 18.1411C15.6757 19.234 15.6871 20.2908 15.7377 20.9698C15.7636 21.3164 16.008 21.6037 16.346 21.685C16.4086 21.7 16.4715 21.7073 16.5337 21.7073C16.8073 21.7073 17.066 21.5661 17.2131 21.3239C17.9137 20.1704 19.6394 17.8242 22.5232 16.8707C22.3434 17.0081 22.1607 17.1571 21.9775 17.3192C20.5623 18.5714 18.8469 20.8532 18.7105 24.6123C18.6998 24.9081 18.8527 25.1837 19.1095 25.3316C19.2331 25.4027 19.3703 25.4382 19.5073 25.4382C19.6548 25.4382 19.802 25.3971 19.9318 25.3152C20.4637 24.9798 21.4284 24.2443 22.3673 22.877C22.486 22.977 22.6331 23.042 22.7903 23.0599C23.039 23.0886 23.2903 22.9964 23.4618 22.8134C23.5553 22.7135 23.6624 22.5935 23.7771 22.4563C23.7172 23.3543 23.6373 24.2411 23.5376 25.107C23.5061 25.3802 23.7022 25.6272 23.9755 25.6588C23.9948 25.661 24.014 25.6621 24.0331 25.6621C24.2827 25.6621 24.4981 25.4749 24.5273 25.2209C24.6907 23.801 24.8023 22.327 24.8595 20.8381C24.9928 20.5836 25.1201 20.3106 25.2358 20.0196C25.2922 20.1613 25.3512 20.2987 25.4124 20.4316C25.5381 21.718 25.6676 23.5792 25.6601 25.7366H25.5069C25.2318 25.7366 25.0088 25.9595 25.0088 26.2346C25.0088 26.5098 25.2318 26.7327 25.5069 26.7327H25.6468C25.6389 27.0721 25.6275 27.4172 25.6118 27.7672H25.1707C24.8956 27.7672 24.6726 27.9902 24.6726 28.2653C24.6726 28.5405 24.8956 28.7634 25.1707 28.7634H25.5564C25.4475 30.4027 25.2428 32.1245 24.895 33.836C24.8402 34.1055 25.0143 34.3685 25.2839 34.4232C25.3174 34.4301 25.3507 34.4333 25.3836 34.4333C25.6155 34.4333 25.8232 34.2704 25.8712 34.0343C26.7522 29.6982 26.7387 25.3089 26.5576 22.2936C26.7299 22.5113 26.8844 22.6859 27.0038 22.8134C27.1752 22.9964 27.4264 23.0887 27.6753 23.0599C27.8325 23.042 27.9796 22.977 28.0983 22.877C29.0372 24.2443 30.0019 24.9798 30.5338 25.3151C30.6636 25.397 30.8108 25.4382 30.9583 25.4382C31.0953 25.4381 31.2325 25.4027 31.3561 25.3316C31.6129 25.1837 31.7658 24.9081 31.7551 24.6123C31.6187 20.8531 29.9032 18.5714 28.4881 17.3192C27.9638 16.8553 27.4439 16.496 26.9839 16.2229C27.8533 16.3148 28.748 16.7254 29.6585 17.4535C30.9532 18.489 31.9525 19.9112 32.433 20.6669C32.5824 20.9017 32.8336 21.0368 33.1024 21.0368C33.1584 21.0368 33.2152 21.0309 33.2719 21.0188C33.5999 20.9491 33.8439 20.6899 33.8933 20.3584C34.2801 17.7633 33.5412 16.1826 32.8533 15.3136C32.4306 14.7796 31.9736 14.4403 31.6427 14.2412C31.6538 14.123 31.6419 14.0012 31.6054 13.8812C31.4981 13.5284 31.2043 13.2802 30.8387 13.2335C29.0307 13.0026 27.7364 13.2776 26.8244 13.7103C26.9928 12.5622 26.6327 11.496 25.7613 10.5914C24.8875 9.68405 23.9481 9.21518 22.9694 9.19792ZM22.4764 12.3893C23.2223 12.7919 23.9381 13.4659 24.3717 14.5866C24.2869 14.536 24.1975 14.486 24.1038 14.4374C23.6885 14.2222 23.1435 14.0144 22.4725 13.9085C22.5048 13.3879 22.5056 12.8801 22.4764 12.3893ZM22.9519 10.1939C23.6563 10.2064 24.3603 10.5726 25.0441 11.2825C26.2281 12.5116 25.9043 13.8457 25.4659 14.7055C24.6425 11.9248 22.4478 11.1288 21.1369 10.9042C21.6035 10.5285 22.231 10.1833 22.9519 10.1939ZM17.7744 6.96866C19.2595 7.45739 20.314 8.42216 20.9137 9.8362C20.6077 10.0363 20.3433 10.2596 20.1265 10.4692C19.9002 10.6881 19.8236 11.0086 19.9269 11.3055C20.0299 11.6016 20.2879 11.805 20.6002 11.8361C20.8534 11.8613 21.1407 11.9071 21.4436 11.9865C21.5059 12.573 21.5181 13.1931 21.4787 13.8366C21.4018 13.8373 21.3236 13.8394 21.2443 13.843C19.8896 11.6452 17.0047 8.14807 12.1096 7.4886C13.0927 6.82083 14.9728 6.047 17.7744 6.96866ZM12.7715 2.2238C13.5623 1.78441 14.3025 1.56379 14.9821 1.56379C15.2592 1.56379 15.5264 1.60052 15.7827 1.67404C16.8004 1.96598 17.4952 2.77747 17.9261 3.48436C16.3247 3.2219 13.0976 3.20663 11.0063 6.62897C10.7196 5.40573 10.6544 3.39988 12.7715 2.2238ZM7.95503 15.6111L7.70785 15.184C7.61918 15.0306 7.45575 14.936 7.27869 14.9353C7.27803 14.9353 7.27736 14.9353 7.27677 14.9353C7.10044 14.9353 6.9372 15.0286 6.84761 15.1805C5.7455 17.0512 4.54763 18.0715 3.82653 18.5641C3.99947 15.2182 5.23812 12.4957 7.51014 10.4692C8.58249 9.51277 9.65159 8.93904 10.3218 8.637C10.274 9.32343 10.3008 9.975 10.3827 10.5888C10.0097 13.0604 8.64053 14.8497 7.95503 15.6111ZM14.9278 15.1806C14.838 15.028 14.6734 14.9339 14.4967 14.9353C14.3197 14.936 14.1562 15.0307 14.0676 15.1839L13.8203 15.6112C12.8675 14.556 11.0357 12.0437 11.3252 8.57909C12.1053 8.916 13.5719 9.6806 14.9262 11.1106C15.1154 11.3104 15.4307 11.3187 15.6304 11.1297C15.8302 10.9406 15.8387 10.6253 15.6495 10.4255C15.0844 9.82876 14.5032 9.33951 13.952 8.94083C17.0312 9.98848 19.0304 12.2803 20.1498 13.9791C19.9545 14.0184 19.7538 14.0663 19.5474 14.1244C19.0444 14.2656 18.6063 14.4593 18.2239 14.6923C17.9254 13.8273 17.5368 13.0078 17.063 12.2511C16.9169 12.0179 16.6095 11.9475 16.3764 12.0933C16.1433 12.2394 16.0727 12.5467 16.2187 12.7799C16.7112 13.5663 17.1036 14.428 17.3889 15.3421C16.88 15.8425 16.5189 16.4309 16.2658 17.0448C15.7814 16.4921 15.3328 15.8679 14.9278 15.1806ZM16.7031 20.2764C16.6749 18.4399 17.1369 15.8361 19.8168 15.0835C20.4589 14.9031 21.0347 14.8296 21.5468 14.8296C22.656 14.8296 23.4659 15.1744 24.0024 15.5244C20.1758 15.9805 17.8076 18.6527 16.7031 20.2764ZM22.9162 21.9313L22.79 21.7133C22.7013 21.56 22.538 21.4654 22.3608 21.4647C22.3602 21.4647 22.3595 21.4647 22.3589 21.4647C22.1826 21.4647 22.0194 21.5579 21.9298 21.7099C21.1448 23.0422 20.3 23.8252 19.7271 24.2485C19.9033 21.7135 20.8706 19.6443 22.6057 18.0936C23.4361 17.3515 24.2649 16.901 24.7938 16.6598C24.9528 19.1968 23.6698 21.065 22.9162 21.9313ZM30.7386 24.2485C30.1658 23.8251 29.3209 23.0421 28.536 21.7098C28.446 21.5573 28.284 21.4649 28.1049 21.4646C27.9278 21.4653 27.7644 21.56 27.6757 21.7132L27.5498 21.9309C26.9898 21.284 26.0167 19.9323 25.7372 18.104C25.7949 17.6645 25.8168 17.2008 25.7934 16.715C26.3134 16.9625 27.065 17.3898 27.828 18.065C29.5832 19.6183 30.5613 21.6971 30.7386 24.2485ZM32.9723 19.6744C31.8108 17.9691 29.4841 15.2004 26.6268 15.2004C26.537 15.2004 26.4468 15.2031 26.3559 15.2087C27.0174 14.5971 28.2816 13.9418 30.5808 14.2056C30.5144 14.3103 30.4885 14.4378 30.5119 14.5632C30.5441 14.7363 30.6654 14.8796 30.8308 14.94C30.8568 14.9494 33.3092 15.892 32.9723 19.6744Z" fill="#616161"/>
<path d="M24.2449 30.02H23.7431C23.9274 29.1638 24.0903 28.2893 24.231 27.3994C24.2739 27.1276 24.0885 26.8726 23.8168 26.8297C23.5448 26.7868 23.29 26.9722 23.247 27.2439C22.8826 29.5501 22.3662 31.75 21.7123 33.7825C21.628 34.0443 21.772 34.3249 22.0339 34.4092C22.0847 34.4255 22.136 34.4332 22.1866 34.4332C22.3971 34.4332 22.5927 34.2987 22.6607 34.0876C22.7793 33.7188 22.8933 33.3446 23.003 32.9656H24.0454C24.3205 32.9656 24.5435 32.7426 24.5435 32.4675C24.5435 32.1924 24.3205 31.9694 24.0454 31.9694H23.2778C23.3605 31.6547 23.4402 31.3368 23.5167 31.0161H24.245C24.5201 31.0161 24.7431 30.7932 24.7431 30.518C24.7431 30.2429 24.52 30.02 24.2449 30.02Z" fill="#616161"/>
</g>
<defs>
<clipPath id="clip0_15_40">
<rect width="34" height="34" fill="white" transform="translate(0 0.5)"/>
</clipPath>
</defs>
</svg>
