<svg width="34" height="35" viewBox="0 0 34 35" fill="none" xmlns="http://www.w3.org/2000/svg">
<path d="M30.0334 16.3666H28.9V11.8333C28.9 11.5613 28.7074 11.3289 28.4467 11.2779L23.2334 10.2353V9.21528L24.5877 9.62895C24.6444 9.64595 24.701 9.65162 24.752 9.65162C24.9957 9.65162 25.2224 9.49295 25.296 9.24928C25.3867 8.94895 25.2167 8.63162 24.922 8.54095L22.9217 7.92895C22.8934 7.91195 22.865 7.89495 22.8367 7.88928L20.0034 7.03928L9.80336 3.92261C9.50302 3.83195 9.18569 4.00195 9.09502 4.29661C9.00436 4.59695 9.17436 4.91428 9.46902 5.00495L10.7667 5.40728V10.2353L5.55336 11.2779C5.29269 11.3289 5.10002 11.5613 5.10002 11.8333V16.3666H3.96669C3.65502 16.3666 3.40002 16.6216 3.40002 16.9333V30.5333C3.40002 30.845 3.65502 31.1 3.96669 31.1H14.7334H19.2667H30.0334C30.345 31.1 30.6 30.845 30.6 30.5333V16.9333C30.6 16.6216 30.345 16.3666 30.0334 16.3666ZM27.7667 12.2979V16.3666H23.2334V11.3913L27.7667 12.2979ZM22.1 8.86962V10.6999V16.3666H11.9V10.6999V5.79261L19.669 8.12161L22.1 8.86962ZM6.23336 12.2979L10.7667 11.3913V16.3666H6.23336V12.2979ZM15.3 29.9666V24.3H18.7V29.9666H15.3ZM29.4667 29.9666H19.8334V24.3H20.9667C21.2784 24.3 21.5334 24.045 21.5334 23.7333C21.5334 23.4216 21.2784 23.1666 20.9667 23.1666H19.2667H14.7334H13.0334C12.7217 23.1666 12.4667 23.4216 12.4667 23.7333C12.4667 24.045 12.7217 24.3 13.0334 24.3H14.1667V29.9666H4.53336V17.4999H5.66669H11.3334H22.6667H28.3334H29.4667V29.9666Z" fill="#222222"/>
<path d="M26.6333 19.7666H23.2333C22.9216 19.7666 22.6666 20.0216 22.6666 20.3333V23.7333C22.6666 24.0449 22.9216 24.2999 23.2333 24.2999H26.6333C26.945 24.2999 27.2 24.0449 27.2 23.7333V20.3333C27.2 20.0216 26.945 19.7666 26.6333 19.7666ZM26.0666 23.1666H23.8V20.8999H26.0666V23.1666Z" fill="#222222"/>
<path d="M10.7667 19.7666H7.36672C7.05505 19.7666 6.80005 20.0216 6.80005 20.3333V23.7333C6.80005 24.0449 7.05505 24.2999 7.36672 24.2999H10.7667C11.0784 24.2999 11.3334 24.0449 11.3334 23.7333V20.3333C11.3334 20.0216 11.0784 19.7666 10.7667 19.7666ZM10.2 23.1666H7.93338V20.8999H10.2V23.1666Z" fill="#222222"/>
<path d="M14.1666 14.6669H19.8333C20.145 14.6669 20.4 14.4119 20.4 14.1002V10.7002C20.4 10.3885 20.145 10.1335 19.8333 10.1335H14.1666C13.855 10.1335 13.6 10.3885 13.6 10.7002V14.1002C13.6 14.4119 13.855 14.6669 14.1666 14.6669ZM19.2666 13.5335H17.5666V11.2669H19.2666V13.5335ZM14.7333 11.2669H16.4333V13.5335H14.7333V11.2669Z" fill="#222222"/>
</svg>
